<?xml version="1.0" encoding="UTF-8" standalone="no"?>
<svg
   xmlns:dc="http://purl.org/dc/elements/1.1/"
   xmlns:cc="http://creativecommons.org/ns#"
   xmlns:rdf="http://www.w3.org/1999/02/22-rdf-syntax-ns#"
   xmlns:svg="http://www.w3.org/2000/svg"
   xmlns="http://www.w3.org/2000/svg"
   id="svg5897"
   version="1.1"
   viewBox="0 0 101.71712 14.692489"
   height="14.692489mm"
   width="101.71712mm">
  <defs
     id="defs5891">
    <clipPath
       clipPathUnits="userSpaceOnUse"
       id="clipPath6458">
      <path
         d="M 0,41.648 V 41.57 H 5.719 L 0,38.269 V 24.205 L 5.719,20.902 H 0 V 20.746 H 5.719 L 0,17.445 V 3.381 L 5.719,0.079 H 0 V 0 h 48.091 48.092 48.091 v 0.078 h -5.719 l 5.719,3.302 v 14.064 l -5.719,3.301 h 5.719 v 0.157 h -5.719 l 5.719,3.303 v 14.064 l -5.719,3.301 h 5.719 v 0.078 z M 126.532,41.57 h 11.437 l -5.719,-3.302 z m -12.022,0 h 11.436 l -5.719,-3.302 z m -12.023,0 h 11.436 l -5.718,-3.302 z m -12.023,0 h 5.719 5.718 l -5.718,-3.301 z m -12.023,0 h 11.437 l -5.719,-3.301 z m -12.023,0 h 11.437 l -5.718,-3.301 z m -12.022,0 h 11.436 l -5.718,-3.301 z m -12.023,0 h 5.718 5.718 l -5.718,-3.301 z m -12.023,0 h 11.437 l -5.719,-3.301 z m -12.022,0 h 11.436 l -5.719,-3.301 z m -12.023,0 h 11.436 l -5.718,-3.301 z m 132.172,-0.137 5.718,-3.301 V 31.53 Z m -6.148,-3.301 5.718,3.301 -5.718,-9.903 z m -5.875,3.301 5.718,-3.301 v -6.603 z m -6.148,-3.301 5.718,3.301 -5.718,-9.904 z m -5.876,3.301 5.719,-3.301 v -6.603 z m -6.146,-3.301 5.717,3.301 -5.309,-9.196 -0.408,-0.707 z m -5.876,3.301 5.718,-3.301 V 31.53 Z m -6.148,-3.301 5.72,3.301 -5.72,-9.903 z m -5.874,3.301 5.718,-3.301 V 31.53 Z m -6.149,-3.301 5.719,3.301 -5.719,-9.903 z m -5.874,3.301 5.718,-3.301 V 31.53 Z m -6.148,-3.301 5.719,3.301 -5.719,-9.903 z m -5.875,3.301 5.719,-3.301 V 31.53 Z m -6.148,-3.3 5.719,3.3 -5.309,-9.196 -0.41,-0.707 z m -5.875,3.3 5.718,-3.3 V 31.53 Z m -6.147,-3.3 5.718,3.3 -5.718,-9.903 z m -5.875,3.3 5.718,-3.301 V 31.53 Z m -6.148,-3.301 5.717,3.301 -5.717,-9.903 z m -5.875,3.301 5.718,-3.301 V 31.53 Z m -6.148,-3.301 5.718,3.301 -5.718,-9.903 z m -5.876,3.301 5.719,-3.301 V 31.53 Z m -6.147,-3.3 5.718,3.3 -5.309,-9.196 -0.409,-0.707 z m -5.876,3.3 5.72,-3.3 V 31.53 Z m -6.147,-3.3 5.719,3.3 -5.719,-9.903 z m 90.171,-3.38 v 6.603 l 5.718,-9.905 z m -0.156,6.603 V 34.753 L 84.374,31.451 Z M 78.226,34.753 v 6.603 l 5.719,-9.905 z M 78.07,41.356 V 34.753 L 72.352,31.451 Z M 66.203,34.753 v 6.603 l 5.719,-9.905 z m -0.156,6.603 V 34.753 L 60.329,31.451 Z M 54.181,34.753 v 6.603 L 59.9,31.451 Z m -0.157,6.603 V 34.753 L 48.306,31.451 Z M 42.159,34.753 v 6.603 l 5.717,-9.905 z m -0.158,6.603 V 34.753 L 36.284,31.451 Z M 30.136,34.753 v 6.603 l 5.717,-9.905 z m -0.157,6.603 V 34.753 L 24.26,31.451 Z M 18.113,34.753 v 6.603 l 5.717,-9.905 z m -0.157,6.603 V 34.753 L 12.237,31.451 Z M 6.09,34.753 v 6.603 l 5.718,-9.905 z M 5.933,41.356 V 34.753 L 0.214,31.451 Z M 138.34,34.753 v 6.602 l 5.719,-9.904 z m -0.157,6.602 v -6.602 l -5.718,-3.302 z m -11.865,-6.602 v 6.602 l 5.717,-9.904 z m -0.157,6.602 v -6.602 l -5.718,-3.302 z m -11.866,-6.602 v 6.602 l 5.718,-9.904 z m -0.157,6.602 v -6.602 l -5.718,-3.302 z m -11.866,-6.603 v 6.603 l 5.718,-9.904 z m -0.157,6.603 v -6.603 l -5.719,-3.301 z m 36.147,-6.738 5.718,-3.302 h -11.437 z m -17.74,-3.302 5.717,3.302 5.718,-3.303 z m -6.306,3.302 5.719,-3.302 h -11.437 z m -12.023,0 5.719,-3.302 H 96.476 Z m -12.022,0 5.718,-3.302 H 84.452 Z m -12.022,0 5.718,-3.302 H 72.43 Z m -12.024,0 5.718,-3.302 H 60.407 Z m -12.022,0 5.718,-3.302 H 48.384 Z m -12.024,0 5.719,-3.302 H 36.362 Z m -12.022,0 5.719,-3.302 H 24.339 Z m -12.023,0 5.718,-3.302 H 12.316 Z m -12.023,0 5.719,-3.302 H 0.293 Z m 90.298,-3.454 -0.087,0.05 v 10e-4 l 4.15,-2.397 z m 36.234,-0.005 h 11.437 l -5.718,-3.302 z m -12.022,0 h 11.437 l -5.719,-3.302 z m -12.023,0 h 11.437 l -5.719,-3.302 z m -12.022,0 h 11.436 l -5.719,-3.302 z m -12.024,0 h 11.437 l -5.718,-3.301 z m -12.023,0 h 11.438 l -5.718,-3.301 z m -12.022,0 h 11.436 l -5.718,-3.301 z m -12.023,0 h 11.437 l -5.718,-3.301 z m -12.022,0 h 11.436 l -5.719,-3.301 z m -12.024,0 h 11.438 l -5.719,-3.301 z m -12.022,0 h 11.437 l -5.719,-3.301 z m -12.023,0 H 11.73 L 6.011,27.857 Z m 65.91,-3.438 5.719,3.302 -5.719,-9.904 z m -5.874,3.302 5.718,-3.302 V 21.118 Z M 18.113,27.72 23.83,31.022 18.113,21.118 Z m -5.876,3.302 5.719,-3.302 v -6.602 z m 126.103,-3.302 5.719,3.301 -5.719,-9.903 z m -5.875,3.301 5.718,-3.301 v -6.603 z m -6.147,-3.301 5.717,3.301 -1.614,-2.796 -4.103,-7.107 z m -5.875,3.301 5.718,-3.301 v -6.602 z m -6.148,-3.301 5.718,3.301 -5.718,-9.903 z m -5.875,3.301 5.718,-3.301 v -6.602 z m -6.148,-3.301 5.718,3.301 -5.718,-9.904 z m -5.876,3.301 5.719,-3.301 v -6.602 z m -6.147,-3.301 5.718,3.301 -5.718,-9.903 z m -5.875,3.301 5.719,-3.301 v -6.602 z m -6.148,-3.301 5.719,3.301 -1.615,-2.796 -4.104,-7.107 z m -5.874,3.301 5.718,-3.301 v -6.602 z m -18.171,-3.3 5.719,3.3 -5.719,-9.903 z m -5.875,3.3 5.718,-3.3 v -6.603 z m -6.147,-3.301 5.717,3.301 -5.717,-9.903 z m -5.875,3.301 5.717,-3.301 v -6.602 z m -6.148,-3.301 5.717,3.301 -1.614,-2.796 -4.103,-7.107 z m -5.876,3.301 5.719,-3.301 v -6.602 z m -18.17,-3.3 5.719,3.3 -5.719,-9.903 z m -5.876,3.3 5.719,-3.3 V 21.118 Z M 120.149,30.944 V 24.34 l -5.719,-3.302 z m -24.045,0 V 24.34 L 90.385,21.039 Z M 84.237,24.34 v 6.604 l 5.719,-9.905 z m -0.156,6.604 V 24.34 L 78.362,21.039 Z M 72.215,24.34 v 6.604 l 5.719,-9.905 z m -0.156,6.604 V 24.34 l -5.72,-3.301 z M 60.192,24.34 v 6.604 l 5.719,-9.905 z m -0.157,6.604 V 24.34 L 54.317,21.039 Z M 48.17,24.34 v 6.604 l 5.718,-9.905 z m -0.157,6.604 V 24.34 L 42.294,21.039 Z M 36.147,24.34 v 6.604 l 5.717,-9.905 z M 35.99,30.944 V 24.34 L 30.271,21.039 Z M 24.124,24.34 v 6.604 l 5.718,-9.905 z m -0.157,6.604 V 24.34 L 18.248,21.039 Z M 12.101,24.34 v 6.604 l 5.718,-9.905 z m -0.156,6.604 V 24.34 L 6.226,21.039 Z M 0.078,24.34 v 6.604 l 5.719,-9.905 z m 144.117,6.603 V 24.34 l -5.718,-3.302 z M 132.329,24.34 v 6.603 l 5.718,-9.905 z m -0.157,6.603 V 24.34 l -5.718,-3.302 z M 120.306,24.34 v 6.603 l 5.718,-9.905 z m -12.022,0 v 6.603 l 5.718,-9.905 z m -0.158,6.603 V 24.34 l -5.718,-3.302 z M 96.26,24.34 v 6.603 l 5.72,-9.905 z m -10.08,3.397 3.918,-6.786 0.073,-0.126 H 90.17 Z m 48.091,-10e-4 3.918,-6.785 0.073,-0.127 z m 7.647,-0.578 -3.583,-6.207 -0.073,-0.126 z m -48.091,0 -3.583,-6.207 -0.073,-0.126 z m -48.091,0 -3.584,-6.207 -0.073,-0.126 z m 38.404,-2.874 0.019,0.012 2.28,-1.316 -2.26,1.304 -0.02,0.011 -5.654,-3.265 z m -48.091,0 0.019,0.012 2.279,-1.316 -2.259,1.304 -0.02,0.011 -5.655,-3.265 z m 96.22,-10e-4 -0.019,0.012 2.279,-1.316 z m -0.019,-0.078 5.719,-3.303 h -11.437 z m -12.023,0 5.719,-3.303 H 114.51 Z m -12.022,0 5.718,-3.303 h -11.436 z m -12.022,0 v -10e-4 l 5.718,-3.302 h -5.718 -5.719 z m -12.024,0 5.719,-3.303 H 78.441 Z m -17.741,-3.302 5.719,3.302 5.718,-3.303 z m -6.304,3.302 5.718,-3.303 H 54.396 Z m -12.023,0 5.718,-3.303 h -5.718 -5.718 z m -12.023,0 5.719,-3.303 H 30.35 Z m -17.74,-3.302 5.717,3.302 5.719,-3.303 z m -6.305,3.302 5.718,-3.303 H 6.305 Z m 126.239,-3.382 v 0.001 l 0.045,-0.078 z m -42.079,-3.378 -5.719,3.301 h 5.719 v -10e-4 h 5.718 l -5.718,-3.301 z m -17.742,3.301 h 11.437 l -5.719,-3.301 z m -12.023,0 h 11.437 l -5.718,-3.301 z m -12.022,0 h 11.436 l -5.718,-3.301 z m -12.023,0 h 5.718 5.718 l -5.718,-3.301 z m -12.023,0 h 11.437 l -5.719,-3.301 z m -12.022,0 h 11.436 l -5.719,-3.301 z m -12.023,0 h 11.436 l -5.718,-3.301 z m 120.227,-10e-4 h 11.437 l -5.719,-3.301 z m -12.022,0 h 11.436 l -5.719,-3.301 z m -12.023,0 h 11.436 l -5.718,-3.301 z M 90.385,20.61 96.104,17.309 v -6.603 z m -7.864,-7.203 -4.158,7.203 5.718,-3.301 v -6.603 z m -10.306,3.902 5.719,3.301 -5.719,-9.904 z m -5.875,3.301 5.719,-3.301 v -6.603 z m -6.148,-3.301 5.719,3.301 -5.719,-9.904 z m -5.875,3.301 5.718,-3.301 V 10.706 Z M 48.17,17.309 53.888,20.61 48.17,10.706 Z m -5.876,3.301 5.719,-3.301 V 10.706 Z M 34.43,13.407 30.272,20.61 35.99,17.309 v -6.603 z m -10.306,3.902 5.718,3.301 -5.718,-9.904 z m -5.876,3.301 5.719,-3.301 v -6.603 z m -6.147,-3.301 5.718,3.301 -5.718,-9.904 z M 6.226,20.61 11.945,17.309 V 10.706 Z M 0.078,17.309 5.797,20.61 0.078,10.706 Z m 138.399,3.3 5.718,-3.301 v -6.602 z m -6.148,-3.301 5.718,3.301 -5.718,-9.903 z m -1.716,-3.901 -4.159,7.202 5.718,-3.301 v -6.602 z m -10.307,3.901 5.718,3.301 -5.718,-9.903 z m -5.876,3.301 5.719,-3.301 v -6.602 z m -6.146,-3.301 5.718,3.301 -5.718,-9.903 z m -5.876,3.301 5.718,-3.301 v -6.602 z m -6.148,-3.301 5.72,3.301 -5.72,-9.903 z m -12.023,0.001 5.719,3.3 -5.719,-9.903 z m -48.09,0 5.717,3.3 -5.717,-9.903 z m 102.036,3.223 v -6.604 l -5.718,-3.301 z m -11.865,-6.604 v 6.604 l 5.717,-9.905 z m -24.046,0 v 6.604 l 5.719,-9.906 z m -12.023,0 v 6.604 l 5.718,-9.905 z m -0.156,6.604 V 13.928 L 84.374,10.627 Z M 78.226,13.928 v 6.604 l 5.719,-9.905 z M 78.07,20.532 V 13.928 L 72.352,10.627 Z M 66.203,13.928 v 6.604 l 5.719,-9.905 z m -0.156,6.604 V 13.928 L 60.329,10.627 Z M 54.181,13.928 v 6.604 L 59.9,10.627 Z m -0.157,6.604 V 13.928 L 48.306,10.627 Z M 42.159,13.928 v 6.604 l 5.717,-9.905 z m -0.158,6.604 V 13.928 L 36.284,10.627 Z M 30.136,13.928 v 6.604 l 5.717,-9.905 z m -0.157,6.604 V 13.928 L 24.26,10.627 Z M 18.113,13.928 v 6.604 l 5.717,-9.905 z m -0.157,6.604 V 13.928 L 12.237,10.627 Z M 6.09,13.928 v 6.604 l 5.719,-9.905 z M 5.933,20.532 V 13.928 L 0.214,10.627 Z M 138.34,13.928 v 6.603 l 5.719,-9.904 z m -12.179,6.603 v -6.603 l -5.718,-3.301 z m -11.866,-6.603 v 6.603 l 5.718,-9.904 z m -0.157,6.603 v -6.603 l -5.718,-3.302 z m -12.023,0 V 13.928 L 96.396,10.626 Z M 90.171,13.793 95.889,10.491 H 84.452 Z m -12.022,0 5.718,-3.302 H 72.429 Z m -12.024,0 5.718,-3.302 H 60.407 Z m -12.022,0 5.718,-3.302 H 48.384 Z m -12.024,0 5.719,-3.302 H 36.362 Z m -12.022,0 5.719,-3.302 H 24.339 Z m -12.023,0 5.719,-3.302 H 12.316 Z m -12.023,0 5.719,-3.302 H 0.293 Z m 132.251,-10e-4 5.718,-3.302 h -11.437 z m -12.023,0 5.718,-3.302 h -11.436 z m -12.023,0 5.719,-3.302 h -11.437 z m -12.023,0 5.719,-3.302 H 96.476 Z M 84.452,10.334 H 95.889 L 90.171,7.033 Z m -12.023,0 H 83.867 L 78.149,7.033 Z m -12.022,0 H 71.843 L 66.125,7.033 Z m -12.023,0 H 59.821 L 54.103,7.033 Z m -12.022,0 H 47.798 L 42.079,7.033 Z m -12.023,0 H 35.776 L 30.057,7.033 Z m -12.023,0 H 23.753 L 18.034,7.033 Z m -12.023,0 H 11.73 L 6.011,7.033 Z m 132.25,-10e-4 h 11.437 l -5.718,-3.3 z m -12.022,0 h 11.436 l -5.718,-3.3 z m -12.023,0 h 11.437 l -5.719,-3.3 z m -12.022,0 h 11.436 l -5.719,-3.3 z m 41.864,-3.436 5.719,3.301 -5.719,-9.905 z m -29.921,3.301 5.719,-3.301 V 0.293 Z m -12.023,0 5.719,-3.301 V 0.293 Z m -6.147,-3.301 5.719,3.301 -5.719,-9.905 z m -5.875,3.301 5.719,-3.301 V 0.293 Z m -6.148,-3.301 5.72,3.301 -5.72,-9.905 z M 72.352,10.198 78.07,6.897 V 0.293 Z m -6.149,-3.301 5.719,3.301 -5.719,-9.905 z m -5.875,3.301 5.719,-3.301 V 0.293 Z M 54.181,6.897 59.9,10.198 54.181,0.293 Z m -5.876,3.301 5.719,-3.301 V 0.293 Z m -6.146,-3.301 5.718,3.301 -5.718,-9.905 z m -5.875,3.301 5.717,-3.301 V 0.293 Z M 30.136,6.897 35.853,10.198 30.136,0.293 Z M 24.26,10.198 29.979,6.897 V 0.293 Z M 18.113,6.897 23.83,10.198 18.113,0.293 Z m -5.876,3.301 5.719,-3.301 V 0.293 Z M 6.09,6.897 11.809,10.198 6.09,0.293 Z M 0.214,10.198 5.933,6.897 V 0.293 Z m 132.251,-0.001 5.718,-3.3 V 0.293 Z m -6.147,-3.3 5.718,3.3 -5.718,-9.904 z m -5.875,3.3 5.718,-3.3 V 0.293 Z m -6.148,-3.3 5.718,3.3 -5.718,-9.904 z m -12.023,0 5.718,3.3 -5.718,-9.904 z m 30.057,-3.382 v 6.605 l 5.718,-9.905 z m -0.157,6.605 V 3.515 l -5.718,-3.3 z M 120.306,3.515 v 6.605 l 5.718,-9.905 z m -0.157,6.605 V 3.515 l -5.719,-3.3 z M 108.284,3.515 v 6.605 l 5.717,-9.905 z m -0.158,6.605 V 3.515 L 102.408,0.214 Z M 96.26,3.515 v 6.605 l 5.72,-9.906 z M 96.104,10.12 V 3.516 L 90.386,0.215 Z M 84.237,3.516 V 10.12 L 89.956,0.215 Z M 84.081,10.12 V 3.516 L 78.363,0.215 Z M 72.215,3.516 V 10.12 L 77.934,0.215 Z M 72.059,10.12 V 3.516 L 66.34,0.215 Z M 60.192,3.515 V 10.12 L 65.911,0.215 Z M 60.035,10.12 V 3.515 l -5.718,-3.3 z M 48.17,3.516 V 10.12 L 53.888,0.215 Z M 48.013,10.12 V 3.516 L 42.295,0.215 Z M 36.147,3.516 V 10.12 L 41.864,0.215 Z M 35.99,10.12 V 3.516 L 30.272,0.215 Z M 24.124,3.516 V 10.12 L 29.842,0.215 Z M 23.967,10.12 V 3.516 L 18.248,0.215 Z M 12.101,3.515 V 10.12 L 17.819,0.215 Z M 11.945,10.12 V 3.515 l -5.72,-3.3 z M 0.078,3.516 V 10.12 L 5.797,0.215 Z m 144.117,6.602 V 3.515 l -5.718,-3.3 z M 96.183,3.381 V 3.38 l 5.718,-3.302 h -5.718 v 0.001 h -5.719 z m -12.024,0 5.719,-3.302 H 78.441 Z m -12.022,0 5.718,-3.302 H 66.418 Z m -12.023,0 5.718,-3.302 H 54.396 Z m -12.023,0 5.718,-3.302 h -5.718 -5.718 z m -12.023,0 5.719,-3.302 H 30.35 Z m -12.023,0 5.719,-3.302 H 18.328 Z m -12.022,0 5.718,-3.302 H 6.305 Z M 132.25,3.38 137.969,0.078 h -11.437 z m -12.023,0 5.719,-3.302 H 114.51 Z m -12.022,0 5.718,-3.302 h -11.436 z"
         id="path6456" />
    </clipPath>
    <linearGradient
       x1="0"
       y1="0"
       x2="1"
       y2="0"
       gradientUnits="userSpaceOnUse"
       gradientTransform="matrix(144.27338,0,0,-144.27338,0,20.82431)"
       spreadMethod="pad"
       id="linearGradient6476">
      <stop
         style="stop-opacity:1;stop-color:#f9cbd3"
         offset="0"
         id="stop6464" />
      <stop
         style="stop-opacity:1;stop-color:#f69e99"
         offset="0.2"
         id="stop6466" />
      <stop
         style="stop-opacity:1;stop-color:#fccb9c"
         offset="0.4"
         id="stop6468" />
      <stop
         style="stop-opacity:1;stop-color:#9cd2a9"
         offset="0.6"
         id="stop6470" />
      <stop
         style="stop-opacity:1;stop-color:#83d2e7"
         offset="0.8"
         id="stop6472" />
      <stop
         style="stop-opacity:1;stop-color:#a2a8d4"
         offset="1"
         id="stop6474" />
    </linearGradient>
    <clipPath
       clipPathUnits="userSpaceOnUse"
       id="clipPath6486">
      <path
         d="M 144.274,41.648 V 41.57 h 5.718 l -5.718,-3.301 V 24.205 l 5.718,-3.303 h -5.718 v -0.156 h 5.718 l -5.718,-3.301 V 3.381 l 5.718,-3.302 h -5.718 V 0 h 47.876 0.215 47.877 48.09 v 0.078 h -5.718 l 5.718,3.302 v 14.064 l -5.718,3.301 h 5.718 v 0.157 h -5.718 l 5.718,3.303 v 14.064 l -5.718,3.301 h 5.718 v 0.078 z M 270.592,41.57 h 11.437 l -5.719,-3.302 z m -12.024,0 h 11.438 l -5.719,-3.302 z m -12.022,0 h 11.436 l -5.717,-3.302 z m -12.022,0 h 5.718 5.718 l -5.718,-3.301 z m -12.024,0 h 11.437 l -5.719,-3.301 z m -12.022,0 h 11.436 l -5.719,-3.301 z m -12.023,0 h 11.437 l -5.719,-3.301 z m -11.808,0 h 5.503 0.215 5.504 l -5.611,-3.239 z m -12.023,0 h 11.437 l -5.719,-3.301 z m -12.024,0 h 11.438 l -5.718,-3.301 z m -12.022,0 h 11.436 l -5.717,-3.301 z m 131.958,-0.137 5.718,-3.301 V 31.53 Z m -6.149,-3.301 5.72,3.301 -5.72,-9.903 z m -5.873,3.301 5.718,-3.301 v -6.603 z m -6.149,-3.301 5.719,3.301 -5.719,-9.904 z m -5.875,3.301 5.719,-3.301 v -6.603 z m -6.147,-3.301 5.718,3.301 -5.309,-9.196 -0.409,-0.707 z m -5.876,3.301 5.718,-3.301 V 31.53 Z m -6.146,-3.301 5.717,3.301 -5.717,-9.903 z m -5.876,3.301 5.718,-3.301 V 31.53 Z m -6.148,-3.301 5.718,3.301 -5.718,-9.903 z m -5.875,3.301 5.719,-3.301 V 31.53 Z m -6.147,-3.301 5.717,3.301 -5.717,-9.903 z m -5.876,3.301 5.718,-3.301 V 31.53 Z m -6.147,-3.3 5.718,3.3 -5.31,-9.196 -0.408,-0.707 z m -5.876,3.3 5.719,-3.3 V 31.53 Z m -6.011,-3.222 5.582,3.222 -5.582,-9.667 z m -5.797,3.222 5.582,-3.222 v -6.445 z m -6.148,-3.301 5.719,3.301 -5.719,-9.903 z m -5.874,3.301 5.718,-3.301 V 31.53 Z m -6.149,-3.301 5.72,3.301 -5.72,-9.903 z m -5.874,3.301 5.719,-3.301 V 31.53 Z m -6.148,-3.3 5.718,3.3 -5.308,-9.196 -0.41,-0.707 z m -5.876,3.3 5.718,-3.3 V 31.53 Z m -6.146,-3.3 5.717,3.3 -5.717,-9.903 z m 89.956,-3.38 v 6.603 l 5.717,-9.905 z m -0.158,6.603 v -6.603 l -5.717,-3.302 z m -11.865,-6.603 v 6.603 l 5.718,-9.905 z m -0.157,6.603 v -6.603 l -5.719,-3.302 z m -11.866,-6.603 v 6.603 l 5.718,-9.905 z m -0.156,6.603 v -6.603 l -5.719,-3.302 z M 198.24,34.753 v 6.603 l 5.719,-9.905 z m -0.157,6.603 v -6.603 l -5.718,-3.302 z m -11.652,-6.603 v 6.603 l 5.718,-9.905 z m -0.155,6.603 v -6.603 l -5.719,-3.302 z m -11.867,-6.603 v 6.603 l 5.718,-9.905 z m -0.156,6.603 v -6.603 l -5.719,-3.302 z m -11.867,-6.603 v 6.603 l 5.719,-9.905 z m -0.157,6.603 v -6.603 l -5.718,-3.302 z m -11.866,-6.603 v 6.603 l 5.719,-9.905 z m -0.157,6.603 v -6.603 l -5.717,-3.302 z m 132.193,-6.603 v 6.602 l 5.718,-9.904 z m -0.155,6.602 v -6.602 l -5.72,-3.302 z m -11.867,-6.602 v 6.602 l 5.718,-9.904 z m -0.157,6.602 v -6.602 l -5.718,-3.302 z m -11.866,-6.602 v 6.602 l 5.719,-9.904 z m -0.157,6.602 v -6.602 l -5.718,-3.302 z m -11.866,-6.603 v 6.603 l 5.718,-9.904 z m -0.157,6.603 v -6.603 l -5.718,-3.301 z M 192.228,31.63 v 6.503 l 0.029,0.016 0.029,-0.017 V 31.63 l -0.028,-0.05 z m 90.093,2.987 5.718,-3.302 h -11.437 z m -17.741,-3.302 5.719,3.302 5.717,-3.303 z m -6.304,3.302 5.717,-3.302 h -11.435 z m -12.023,0 5.718,-3.302 h -11.437 z m -12.023,0 5.718,-3.302 h -11.436 z m -12.023,0 5.719,-3.302 H 216.49 Z m -12.023,0 5.719,-3.302 h -11.437 z m -12.023,0 5.719,-3.302 h -11.437 z m -11.807,0 5.718,-3.302 h -11.438 z m -12.023,0 5.718,-3.302 h -11.437 z m -12.023,0 5.718,-3.302 H 156.59 Z m -12.022,0 5.718,-3.302 h -11.438 z m 90.082,-3.454 -0.088,0.05 v 10e-4 l 4.151,-2.397 z m 36.234,-0.005 h 11.437 l -5.718,-3.302 z m -12.023,0 h 11.437 l -5.717,-3.302 z m -12.021,0 h 11.436 l -5.718,-3.302 z m -12.024,0 h 11.437 l -5.718,-3.302 z m -12.022,0 h 11.436 l -5.718,-3.301 z m -12.023,0 h 11.437 l -5.719,-3.301 z m -12.023,0 h 11.437 l -5.719,-3.301 z m -12.023,0 h 11.437 l -5.719,-3.301 z m -11.809,0 h 11.438 l -5.718,-3.301 z m -12.022,0 h 11.437 l -5.718,-3.301 z m -12.022,0 h 11.436 l -5.718,-3.301 z m -12.024,0 h 11.438 l -5.718,-3.301 z m 65.697,-3.438 5.718,3.302 -5.718,-9.904 z m -5.875,3.302 5.719,-3.302 v -6.602 z m -42.002,-3.302 5.719,3.302 -5.719,-9.904 z m -5.875,3.302 5.718,-3.302 v -6.602 z m 125.888,-3.302 5.718,3.301 -5.718,-9.903 z m -5.875,3.301 5.72,-3.301 v -6.603 z m -6.147,-3.301 5.718,3.301 -1.615,-2.796 -4.103,-7.107 z m -5.875,3.301 5.718,-3.301 v -6.602 z m -6.148,-3.301 5.719,3.301 -5.719,-9.903 z m -5.875,3.301 5.718,-3.301 v -6.602 z m -6.148,-3.301 5.718,3.301 -5.718,-9.904 z m -5.875,3.301 5.718,-3.301 v -6.602 z m -6.147,-3.301 5.717,3.301 -5.717,-9.903 z m -5.875,3.301 5.717,-3.301 v -6.602 z m -6.148,-3.301 5.718,3.301 -1.614,-2.796 -4.104,-7.107 z m -5.876,3.301 5.719,-3.301 v -6.602 z m -18.17,-3.3 5.719,3.3 -5.719,-9.903 z m -5.875,3.3 5.718,-3.3 v -6.603 z m -5.934,-3.301 5.718,3.301 -5.718,-9.903 z m -5.874,3.301 5.719,-3.301 v -6.602 z m -6.148,-3.301 5.718,3.301 -1.614,-2.796 -4.104,-7.107 z m -5.875,3.301 5.719,-3.301 v -6.602 z m -18.171,-3.3 5.719,3.3 -5.719,-9.903 z m -5.874,3.3 5.717,-3.3 v -6.603 z m 119.72,-0.077 V 24.34 l -5.719,-3.302 z m -24.046,0 V 24.34 l -5.718,-3.301 z M 228.297,24.34 v 6.604 l 5.717,-9.905 z m -0.156,6.604 V 24.34 l -5.719,-3.301 z M 216.275,24.34 v 6.604 l 5.717,-9.905 z m -0.158,6.604 V 24.34 l -5.719,-3.301 z M 204.252,24.34 v 6.604 l 5.718,-9.905 z m -0.157,6.604 V 24.34 l -5.719,-3.301 z M 180.42,24.34 v 6.604 l 5.719,-9.905 z m -0.156,6.604 V 24.34 l -5.719,-3.301 z M 168.397,24.34 v 6.604 l 5.72,-9.905 z m -0.155,6.604 V 24.34 l -5.719,-3.301 z M 156.375,24.34 v 6.604 l 5.719,-9.905 z m -0.158,6.604 V 24.34 L 150.5,21.039 Z M 144.353,24.34 v 6.604 l 5.717,-9.905 z m 143.901,6.603 V 24.34 l -5.719,-3.302 z M 276.387,24.34 v 6.603 l 5.719,-9.905 z m -0.155,6.603 V 24.34 l -5.719,-3.302 z M 264.365,24.34 v 6.603 l 5.719,-9.905 z m -12.022,0 v 6.603 l 5.718,-9.905 z m -0.158,6.603 V 24.34 l -5.718,-3.302 z M 240.321,24.34 v 6.603 l 5.717,-9.905 z m -48.093,0 v 6.504 l 0.03,0.049 0.028,-0.049 V 24.34 l -0.029,-0.017 z m 0.137,-0.078 v 6.446 l 5.582,-9.669 z m -0.215,6.446 v -6.446 l -5.582,-3.223 z m -9.787,-2.971 3.917,-6.786 0.074,-0.126 h -0.002 z m 95.967,-10e-4 3.918,-6.785 0.072,-0.127 z m 7.648,-0.578 -3.584,-6.207 -0.073,-0.126 z m -95.968,0 -3.583,-6.207 -0.073,-0.126 z m 38.189,-2.874 0.019,0.012 2.28,-1.316 -2.26,1.304 -0.02,0.011 -5.654,-3.265 z m -47.877,0 0.02,0.012 2.279,-1.316 -2.259,1.304 -0.02,0.011 -5.655,-3.265 z m 96.007,-10e-4 -0.019,0.012 2.279,-1.316 z m -0.019,-0.078 5.719,-3.303 h -11.437 z m -12.023,0 5.719,-3.303 h -11.438 z m -12.022,0 5.717,-3.303 h -11.436 z m -12.023,0 v -10e-4 l 5.718,-3.302 h -5.718 -5.718 z m -12.024,0 5.719,-3.303 H 222.5 Z m -17.74,-3.302 5.717,3.302 5.719,-3.303 z m -6.305,3.302 5.719,-3.303 h -11.437 z m -23.831,0 5.719,-3.303 h -11.437 z m -17.741,-3.302 5.719,3.302 5.718,-3.303 z m -6.304,3.302 5.717,-3.303 h -11.436 z m 35.961,-0.062 5.611,-3.241 h -5.504 -0.215 -5.503 z m 90.063,-3.32 v 0.001 l 0.045,-0.078 z m -42.079,-3.378 -5.718,3.301 h 5.718 v -10e-4 h 5.718 l -5.718,-3.301 z M 222.5,20.746 h 11.437 l -5.719,-3.301 z m -12.022,0 h 11.436 l -5.719,-3.301 z m -12.023,0 h 11.437 l -5.719,-3.301 z m -11.808,0 h 5.503 0.215 5.504 l -5.611,-3.24 z m -12.023,0 h 11.437 l -5.719,-3.301 z m -12.024,0 h 11.438 l -5.718,-3.301 z m -12.022,0 h 11.436 l -5.717,-3.301 z m 120.014,-10e-4 h 11.437 l -5.719,-3.301 z m -12.024,0 h 11.438 l -5.719,-3.301 z m -12.022,0 h 11.436 l -5.717,-3.301 z m -12.101,-0.135 5.718,-3.301 v -6.603 z m -7.865,-7.203 -4.158,7.203 5.719,-3.301 v -6.603 z m -10.305,3.902 5.717,3.301 -5.717,-9.904 z m -5.876,3.301 5.718,-3.301 v -6.603 z m -6.147,-3.301 5.718,3.301 -5.718,-9.904 z m -5.876,3.301 5.719,-3.301 v -6.603 z m -6.011,-3.223 5.582,3.223 -5.582,-9.669 z m -5.797,3.223 5.582,-3.223 v -6.446 z m -7.865,-7.203 -4.157,7.203 5.718,-3.301 v -6.603 z m -10.306,3.902 5.72,3.301 -5.72,-9.904 z m -5.874,3.301 5.719,-3.301 v -6.603 z m -6.148,-3.301 5.719,3.301 -5.719,-9.904 z m -5.875,3.301 5.717,-3.301 v -6.603 z m -6.147,-3.301 5.717,3.301 -5.717,-9.904 z m 138.182,3.3 5.719,-3.301 v -6.602 z m -6.148,-3.301 5.719,3.301 -5.719,-9.903 z m -1.716,-3.901 -4.157,7.202 5.718,-3.301 v -6.602 z m -10.306,3.901 5.719,3.301 -5.719,-9.903 z m -5.875,3.301 5.719,-3.301 v -6.602 z m -6.147,-3.301 5.718,3.301 -5.718,-9.903 z m -5.876,3.301 5.718,-3.301 v -6.602 z m -6.146,-3.301 5.717,3.301 -5.717,-9.903 z m -12.024,0.001 5.717,3.3 -5.717,-9.903 z m -47.877,0 5.719,3.3 -5.719,-9.903 z m 101.824,3.223 v -6.604 l -5.72,-3.301 z m -11.867,-6.604 v 6.604 l 5.718,-9.905 z m -24.046,0 v 6.604 l 5.718,-9.906 z m -12.022,0 v 6.604 l 5.717,-9.905 z m -0.158,6.604 v -6.604 l -5.717,-3.301 z m -11.865,-6.604 v 6.604 l 5.718,-9.905 z m -0.157,6.604 v -6.604 l -5.719,-3.301 z m -11.866,-6.604 v 6.604 l 5.718,-9.905 z m -0.156,6.604 v -6.604 l -5.719,-3.301 z M 198.24,13.928 v 6.604 l 5.719,-9.905 z m -0.157,6.604 v -6.604 l -5.718,-3.301 z m -11.652,-6.604 v 6.604 l 5.718,-9.905 z m -0.155,6.604 v -6.604 l -5.719,-3.301 z m -11.867,-6.604 v 6.604 l 5.718,-9.905 z m -0.156,6.604 v -6.604 l -5.719,-3.301 z m -11.867,-6.604 v 6.604 l 5.719,-9.905 z m -0.157,6.604 v -6.604 l -5.718,-3.301 z m -11.866,-6.604 v 6.604 l 5.719,-9.905 z m -0.157,6.604 v -6.604 l -5.717,-3.301 z m 132.193,-6.604 v 6.603 l 5.718,-9.904 z m -12.179,6.603 v -6.603 l -5.718,-3.301 z m -11.866,-6.603 v 6.603 l 5.719,-9.904 z m -0.157,6.603 v -6.603 l -5.718,-3.302 z m -12.023,0 v -6.603 l -5.718,-3.302 z m -53.946,-9.726 v 6.504 l 0.03,0.016 0.028,-0.016 v -6.504 l -0.028,-0.049 z m 42.002,2.988 5.718,-3.302 h -11.436 z m -12.023,0 5.719,-3.302 H 216.49 Z m -12.023,0 5.719,-3.302 h -11.437 z m -12.023,0 5.719,-3.302 h -11.437 z m -11.807,0 5.718,-3.302 h -11.438 z m -12.023,0 5.718,-3.302 h -11.437 z m -12.023,0 5.718,-3.302 H 156.59 Z m -12.022,0 5.718,-3.302 h -11.438 z m 132.035,-10e-4 5.718,-3.302 h -11.437 z m -12.022,0 5.717,-3.302 H 264.58 Z m -12.023,0 5.718,-3.302 h -11.436 z m -12.023,0 5.718,-3.302 h -11.437 z m -17.741,-3.458 h 11.436 L 234.23,7.033 Z m -12.022,0 h 11.436 l -5.719,-3.301 z m -12.024,0 h 11.437 l -5.719,-3.301 z m -12.023,0 h 11.437 l -5.719,-3.301 z m -11.809,0 h 11.438 l -5.718,-3.301 z m -12.022,0 h 11.437 l -5.718,-3.301 z m -12.022,0 h 11.436 l -5.718,-3.301 z m -12.024,0 h 11.438 l -5.718,-3.301 z m 132.036,-10e-4 h 11.437 l -5.718,-3.3 z m -12.022,0 h 11.436 l -5.717,-3.3 z m -12.022,0 h 11.436 l -5.718,-3.3 z m -12.024,0 h 11.437 l -5.718,-3.3 z m 41.865,-3.436 5.719,3.301 -5.719,-9.905 z m -29.92,3.301 5.718,-3.301 V 0.293 Z m -12.024,0 5.719,-3.301 V 0.293 Z m -6.146,-3.301 5.718,3.301 -5.718,-9.905 z m -5.875,3.301 5.717,-3.301 V 0.293 Z m -6.148,-3.301 5.718,3.301 -5.718,-9.905 z m -5.876,3.301 5.719,-3.301 V 0.293 Z m -6.147,-3.301 5.718,3.301 -5.718,-9.905 z m -5.875,3.301 5.719,-3.301 V 0.293 Z m -6.148,-3.301 5.719,3.301 -5.719,-9.905 z m -5.875,3.3 v 0.001 l 5.718,-3.301 V 0.293 Z m -5.934,-3.3 5.719,3.301 v -0.001 l -5.719,-9.904 z m -5.874,3.301 5.719,-3.301 V 0.293 Z m -6.148,-3.301 5.719,3.301 -5.719,-9.905 z m -5.875,3.301 5.719,-3.301 V 0.293 Z m -6.148,-3.301 5.719,3.301 -5.719,-9.905 z m -5.875,3.301 5.718,-3.301 V 0.293 Z m -6.148,-3.301 5.719,3.301 -5.719,-9.905 z m -5.874,3.301 5.717,-3.301 V 0.293 Z m 132.035,-0.001 5.72,-3.3 V 0.293 Z m -6.147,-3.3 5.718,3.3 -5.718,-9.904 z m -5.875,3.3 5.718,-3.3 V 0.293 Z m -6.148,-3.3 5.719,3.3 -5.719,-9.904 z m -12.023,0 5.718,3.3 -5.718,-9.904 z m 30.056,-3.382 v 6.605 l 5.72,-9.905 z m -0.155,6.605 V 3.515 l -5.718,-3.3 z M 264.365,3.515 v 6.605 l 5.719,-9.905 z m -0.156,6.605 V 3.515 l -5.719,-3.3 z M 252.343,3.515 v 6.605 l 5.718,-9.905 z m -0.158,6.605 V 3.515 L 246.467,0.214 Z M 240.321,3.515 v 6.605 l 5.717,-9.906 z m -0.158,6.605 V 3.516 L 234.445,0.215 Z M 228.297,3.516 v 6.604 l 5.718,-9.905 z m -0.156,6.604 V 3.516 L 222.422,0.215 Z M 216.275,3.516 v 6.604 l 5.717,-9.905 z m -0.158,6.604 V 3.516 L 210.399,0.215 Z M 204.252,3.515 v 6.605 l 5.718,-9.905 z m -0.157,6.605 V 3.515 l -5.719,-3.3 z M 180.42,3.516 v 6.604 l 5.719,-9.905 z m -0.156,6.604 V 3.516 L 174.546,0.215 Z M 168.397,3.516 v 6.604 l 5.72,-9.905 z m -0.155,6.604 V 3.516 L 162.523,0.215 Z M 156.375,3.515 v 6.605 l 5.718,-9.905 z m -0.158,6.605 V 3.515 l -5.718,-3.3 z M 144.353,3.516 v 6.604 l 5.717,-9.905 z m 143.901,6.602 V 3.515 l -5.718,-3.3 z M 192.228,3.516 v 6.504 l 0.03,0.049 0.028,-0.049 V 3.516 L 192.258,3.5 Z m 0.137,-0.078 v 6.446 l 5.582,-9.669 z M 192.15,9.883 V 3.438 L 186.568,0.215 Z M 240.242,3.381 V 3.38 l 5.718,-3.302 h -5.718 v 0.001 h -5.718 z m -12.024,0 5.719,-3.302 H 222.5 Z m -12.023,0 5.719,-3.302 h -11.436 z m -12.022,0 5.719,-3.302 h -11.437 z m -23.831,0 5.719,-3.302 h -11.437 z m -12.022,0 5.718,-3.302 H 162.6 Z m -12.023,0 5.717,-3.302 H 150.578 Z M 276.31,3.38 282.029,0.078 h -11.437 z m -12.023,0 5.719,-3.302 h -11.438 z m -12.022,0 5.717,-3.302 h -11.436 z m -60.007,-0.062 5.611,-3.239 h -5.504 -0.215 -5.503 z"
         id="path6484" />
    </clipPath>
    <linearGradient
       x1="0"
       y1="0"
       x2="1"
       y2="0"
       gradientUnits="userSpaceOnUse"
       gradientTransform="matrix(144.05878,0,0,-144.05878,144.27374,20.82431)"
       spreadMethod="pad"
       id="linearGradient6504">
      <stop
         style="stop-opacity:1;stop-color:#f9cbd3"
         offset="0"
         id="stop6492" />
      <stop
         style="stop-opacity:1;stop-color:#f69e99"
         offset="0.2"
         id="stop6494" />
      <stop
         style="stop-opacity:1;stop-color:#fccb9c"
         offset="0.4"
         id="stop6496" />
      <stop
         style="stop-opacity:1;stop-color:#9cd2a9"
         offset="0.6"
         id="stop6498" />
      <stop
         style="stop-opacity:1;stop-color:#83d2e7"
         offset="0.8"
         id="stop6500" />
      <stop
         style="stop-opacity:1;stop-color:#a2a8d4"
         offset="1"
         id="stop6502" />
    </linearGradient>
  </defs>
  <metadata
     id="metadata5894">
    <rdf:RDF>
      <cc:Work
         rdf:about="">
        <dc:format>image/svg+xml</dc:format>
        <dc:type
           rdf:resource="http://purl.org/dc/dcmitype/StillImage" />
        <dc:title></dc:title>
      </cc:Work>
    </rdf:RDF>
  </metadata>
  <g
     transform="translate(-401.20096,-448.40375)"
     id="layer1">
    <g
       id="g6450"
       transform="matrix(0.35277777,0,0,-0.35277777,401.20096,463.09624)">
      <g
         id="g6452">
        <g
           id="g6454"
           clip-path="url(#clipPath6458)">
          <g
             id="g6460">
            <g
               id="g6462">
              <path
                 d="M 0,41.648 V 41.57 H 5.719 L 0,38.269 V 24.205 L 5.719,20.902 H 0 V 20.746 H 5.719 L 0,17.445 V 3.381 L 5.719,0.079 H 0 V 0 h 48.091 48.092 48.091 v 0.078 h -5.719 l 5.719,3.302 v 14.064 l -5.719,3.301 h 5.719 v 0.157 h -5.719 l 5.719,3.303 v 14.064 l -5.719,3.301 h 5.719 v 0.078 z M 126.532,41.57 h 11.437 l -5.719,-3.302 z m -12.022,0 h 11.436 l -5.719,-3.302 z m -12.023,0 h 11.436 l -5.718,-3.302 z m -12.023,0 h 5.719 5.718 l -5.718,-3.301 z m -12.023,0 h 11.437 l -5.719,-3.301 z m -12.023,0 h 11.437 l -5.718,-3.301 z m -12.022,0 h 11.436 l -5.718,-3.301 z m -12.023,0 h 5.718 5.718 l -5.718,-3.301 z m -12.023,0 h 11.437 l -5.719,-3.301 z m -12.022,0 h 11.436 l -5.719,-3.301 z m -12.023,0 h 11.436 l -5.718,-3.301 z m 132.172,-0.137 5.718,-3.301 V 31.53 Z m -6.148,-3.301 5.718,3.301 -5.718,-9.903 z m -5.875,3.301 5.718,-3.301 v -6.603 z m -6.148,-3.301 5.718,3.301 -5.718,-9.904 z m -5.876,3.301 5.719,-3.301 v -6.603 z m -6.146,-3.301 5.717,3.301 -5.309,-9.196 -0.408,-0.707 z m -5.876,3.301 5.718,-3.301 V 31.53 Z m -6.148,-3.301 5.72,3.301 -5.72,-9.903 z m -5.874,3.301 5.718,-3.301 V 31.53 Z m -6.149,-3.301 5.719,3.301 -5.719,-9.903 z m -5.874,3.301 5.718,-3.301 V 31.53 Z m -6.148,-3.301 5.719,3.301 -5.719,-9.903 z m -5.875,3.301 5.719,-3.301 V 31.53 Z m -6.148,-3.3 5.719,3.3 -5.309,-9.196 -0.41,-0.707 z m -5.875,3.3 5.718,-3.3 V 31.53 Z m -6.147,-3.3 5.718,3.3 -5.718,-9.903 z m -5.875,3.3 5.718,-3.301 V 31.53 Z m -6.148,-3.301 5.717,3.301 -5.717,-9.903 z m -5.875,3.301 5.718,-3.301 V 31.53 Z m -6.148,-3.301 5.718,3.301 -5.718,-9.903 z m -5.876,3.301 5.719,-3.301 V 31.53 Z m -6.147,-3.3 5.718,3.3 -5.309,-9.196 -0.409,-0.707 z m -5.876,3.3 5.72,-3.3 V 31.53 Z m -6.147,-3.3 5.719,3.3 -5.719,-9.903 z m 90.171,-3.38 v 6.603 l 5.718,-9.905 z m -0.156,6.603 V 34.753 L 84.374,31.451 Z M 78.226,34.753 v 6.603 l 5.719,-9.905 z M 78.07,41.356 V 34.753 L 72.352,31.451 Z M 66.203,34.753 v 6.603 l 5.719,-9.905 z m -0.156,6.603 V 34.753 L 60.329,31.451 Z M 54.181,34.753 v 6.603 L 59.9,31.451 Z m -0.157,6.603 V 34.753 L 48.306,31.451 Z M 42.159,34.753 v 6.603 l 5.717,-9.905 z m -0.158,6.603 V 34.753 L 36.284,31.451 Z M 30.136,34.753 v 6.603 l 5.717,-9.905 z m -0.157,6.603 V 34.753 L 24.26,31.451 Z M 18.113,34.753 v 6.603 l 5.717,-9.905 z m -0.157,6.603 V 34.753 L 12.237,31.451 Z M 6.09,34.753 v 6.603 l 5.718,-9.905 z M 5.933,41.356 V 34.753 L 0.214,31.451 Z M 138.34,34.753 v 6.602 l 5.719,-9.904 z m -0.157,6.602 v -6.602 l -5.718,-3.302 z m -11.865,-6.602 v 6.602 l 5.717,-9.904 z m -0.157,6.602 v -6.602 l -5.718,-3.302 z m -11.866,-6.602 v 6.602 l 5.718,-9.904 z m -0.157,6.602 v -6.602 l -5.718,-3.302 z m -11.866,-6.603 v 6.603 l 5.718,-9.904 z m -0.157,6.603 v -6.603 l -5.719,-3.301 z m 36.147,-6.738 5.718,-3.302 h -11.437 z m -17.74,-3.302 5.717,3.302 5.718,-3.303 z m -6.306,3.302 5.719,-3.302 h -11.437 z m -12.023,0 5.719,-3.302 H 96.476 Z m -12.022,0 5.718,-3.302 H 84.452 Z m -12.022,0 5.718,-3.302 H 72.43 Z m -12.024,0 5.718,-3.302 H 60.407 Z m -12.022,0 5.718,-3.302 H 48.384 Z m -12.024,0 5.719,-3.302 H 36.362 Z m -12.022,0 5.719,-3.302 H 24.339 Z m -12.023,0 5.718,-3.302 H 12.316 Z m -12.023,0 5.719,-3.302 H 0.293 Z m 90.298,-3.454 -0.087,0.05 v 10e-4 l 4.15,-2.397 z m 36.234,-0.005 h 11.437 l -5.718,-3.302 z m -12.022,0 h 11.437 l -5.719,-3.302 z m -12.023,0 h 11.437 l -5.719,-3.302 z m -12.022,0 h 11.436 l -5.719,-3.302 z m -12.024,0 h 11.437 l -5.718,-3.301 z m -12.023,0 h 11.438 l -5.718,-3.301 z m -12.022,0 h 11.436 l -5.718,-3.301 z m -12.023,0 h 11.437 l -5.718,-3.301 z m -12.022,0 h 11.436 l -5.719,-3.301 z m -12.024,0 h 11.438 l -5.719,-3.301 z m -12.022,0 h 11.437 l -5.719,-3.301 z m -12.023,0 H 11.73 L 6.011,27.857 Z m 65.91,-3.438 5.719,3.302 -5.719,-9.904 z m -5.874,3.302 5.718,-3.302 V 21.118 Z M 18.113,27.72 23.83,31.022 18.113,21.118 Z m -5.876,3.302 5.719,-3.302 v -6.602 z m 126.103,-3.302 5.719,3.301 -5.719,-9.903 z m -5.875,3.301 5.718,-3.301 v -6.603 z m -6.147,-3.301 5.717,3.301 -1.614,-2.796 -4.103,-7.107 z m -5.875,3.301 5.718,-3.301 v -6.602 z m -6.148,-3.301 5.718,3.301 -5.718,-9.903 z m -5.875,3.301 5.718,-3.301 v -6.602 z m -6.148,-3.301 5.718,3.301 -5.718,-9.904 z m -5.876,3.301 5.719,-3.301 v -6.602 z m -6.147,-3.301 5.718,3.301 -5.718,-9.903 z m -5.875,3.301 5.719,-3.301 v -6.602 z m -6.148,-3.301 5.719,3.301 -1.615,-2.796 -4.104,-7.107 z m -5.874,3.301 5.718,-3.301 v -6.602 z m -18.171,-3.3 5.719,3.3 -5.719,-9.903 z m -5.875,3.3 5.718,-3.3 v -6.603 z m -6.147,-3.301 5.717,3.301 -5.717,-9.903 z m -5.875,3.301 5.717,-3.301 v -6.602 z m -6.148,-3.301 5.717,3.301 -1.614,-2.796 -4.103,-7.107 z m -5.876,3.301 5.719,-3.301 v -6.602 z m -18.17,-3.3 5.719,3.3 -5.719,-9.903 z m -5.876,3.3 5.719,-3.3 V 21.118 Z M 120.149,30.944 V 24.34 l -5.719,-3.302 z m -24.045,0 V 24.34 L 90.385,21.039 Z M 84.237,24.34 v 6.604 l 5.719,-9.905 z m -0.156,6.604 V 24.34 L 78.362,21.039 Z M 72.215,24.34 v 6.604 l 5.719,-9.905 z m -0.156,6.604 V 24.34 l -5.72,-3.301 z M 60.192,24.34 v 6.604 l 5.719,-9.905 z m -0.157,6.604 V 24.34 L 54.317,21.039 Z M 48.17,24.34 v 6.604 l 5.718,-9.905 z m -0.157,6.604 V 24.34 L 42.294,21.039 Z M 36.147,24.34 v 6.604 l 5.717,-9.905 z M 35.99,30.944 V 24.34 L 30.271,21.039 Z M 24.124,24.34 v 6.604 l 5.718,-9.905 z m -0.157,6.604 V 24.34 L 18.248,21.039 Z M 12.101,24.34 v 6.604 l 5.718,-9.905 z m -0.156,6.604 V 24.34 L 6.226,21.039 Z M 0.078,24.34 v 6.604 l 5.719,-9.905 z m 144.117,6.603 V 24.34 l -5.718,-3.302 z M 132.329,24.34 v 6.603 l 5.718,-9.905 z m -0.157,6.603 V 24.34 l -5.718,-3.302 z M 120.306,24.34 v 6.603 l 5.718,-9.905 z m -12.022,0 v 6.603 l 5.718,-9.905 z m -0.158,6.603 V 24.34 l -5.718,-3.302 z M 96.26,24.34 v 6.603 l 5.72,-9.905 z m -10.08,3.397 3.918,-6.786 0.073,-0.126 H 90.17 Z m 48.091,-10e-4 3.918,-6.785 0.073,-0.127 z m 7.647,-0.578 -3.583,-6.207 -0.073,-0.126 z m -48.091,0 -3.583,-6.207 -0.073,-0.126 z m -48.091,0 -3.584,-6.207 -0.073,-0.126 z m 38.404,-2.874 0.019,0.012 2.28,-1.316 -2.26,1.304 -0.02,0.011 -5.654,-3.265 z m -48.091,0 0.019,0.012 2.279,-1.316 -2.259,1.304 -0.02,0.011 -5.655,-3.265 z m 96.22,-10e-4 -0.019,0.012 2.279,-1.316 z m -0.019,-0.078 5.719,-3.303 h -11.437 z m -12.023,0 5.719,-3.303 H 114.51 Z m -12.022,0 5.718,-3.303 h -11.436 z m -12.022,0 v -10e-4 l 5.718,-3.302 h -5.718 -5.719 z m -12.024,0 5.719,-3.303 H 78.441 Z m -17.741,-3.302 5.719,3.302 5.718,-3.303 z m -6.304,3.302 5.718,-3.303 H 54.396 Z m -12.023,0 5.718,-3.303 h -5.718 -5.718 z m -12.023,0 5.719,-3.303 H 30.35 Z m -17.74,-3.302 5.717,3.302 5.719,-3.303 z m -6.305,3.302 5.718,-3.303 H 6.305 Z m 126.239,-3.382 v 0.001 l 0.045,-0.078 z m -42.079,-3.378 -5.719,3.301 h 5.719 v -10e-4 h 5.718 l -5.718,-3.301 z m -17.742,3.301 h 11.437 l -5.719,-3.301 z m -12.023,0 h 11.437 l -5.718,-3.301 z m -12.022,0 h 11.436 l -5.718,-3.301 z m -12.023,0 h 5.718 5.718 l -5.718,-3.301 z m -12.023,0 h 11.437 l -5.719,-3.301 z m -12.022,0 h 11.436 l -5.719,-3.301 z m -12.023,0 h 11.436 l -5.718,-3.301 z m 120.227,-10e-4 h 11.437 l -5.719,-3.301 z m -12.022,0 h 11.436 l -5.719,-3.301 z m -12.023,0 h 11.436 l -5.718,-3.301 z M 90.385,20.61 96.104,17.309 v -6.603 z m -7.864,-7.203 -4.158,7.203 5.718,-3.301 v -6.603 z m -10.306,3.902 5.719,3.301 -5.719,-9.904 z m -5.875,3.301 5.719,-3.301 v -6.603 z m -6.148,-3.301 5.719,3.301 -5.719,-9.904 z m -5.875,3.301 5.718,-3.301 V 10.706 Z M 48.17,17.309 53.888,20.61 48.17,10.706 Z m -5.876,3.301 5.719,-3.301 V 10.706 Z M 34.43,13.407 30.272,20.61 35.99,17.309 v -6.603 z m -10.306,3.902 5.718,3.301 -5.718,-9.904 z m -5.876,3.301 5.719,-3.301 v -6.603 z m -6.147,-3.301 5.718,3.301 -5.718,-9.904 z M 6.226,20.61 11.945,17.309 V 10.706 Z M 0.078,17.309 5.797,20.61 0.078,10.706 Z m 138.399,3.3 5.718,-3.301 v -6.602 z m -6.148,-3.301 5.718,3.301 -5.718,-9.903 z m -1.716,-3.901 -4.159,7.202 5.718,-3.301 v -6.602 z m -10.307,3.901 5.718,3.301 -5.718,-9.903 z m -5.876,3.301 5.719,-3.301 v -6.602 z m -6.146,-3.301 5.718,3.301 -5.718,-9.903 z m -5.876,3.301 5.718,-3.301 v -6.602 z m -6.148,-3.301 5.72,3.301 -5.72,-9.903 z m -12.023,0.001 5.719,3.3 -5.719,-9.903 z m -48.09,0 5.717,3.3 -5.717,-9.903 z m 102.036,3.223 v -6.604 l -5.718,-3.301 z m -11.865,-6.604 v 6.604 l 5.717,-9.905 z m -24.046,0 v 6.604 l 5.719,-9.906 z m -12.023,0 v 6.604 l 5.718,-9.905 z m -0.156,6.604 V 13.928 L 84.374,10.627 Z M 78.226,13.928 v 6.604 l 5.719,-9.905 z M 78.07,20.532 V 13.928 L 72.352,10.627 Z M 66.203,13.928 v 6.604 l 5.719,-9.905 z m -0.156,6.604 V 13.928 L 60.329,10.627 Z M 54.181,13.928 v 6.604 L 59.9,10.627 Z m -0.157,6.604 V 13.928 L 48.306,10.627 Z M 42.159,13.928 v 6.604 l 5.717,-9.905 z m -0.158,6.604 V 13.928 L 36.284,10.627 Z M 30.136,13.928 v 6.604 l 5.717,-9.905 z m -0.157,6.604 V 13.928 L 24.26,10.627 Z M 18.113,13.928 v 6.604 l 5.717,-9.905 z m -0.157,6.604 V 13.928 L 12.237,10.627 Z M 6.09,13.928 v 6.604 l 5.719,-9.905 z M 5.933,20.532 V 13.928 L 0.214,10.627 Z M 138.34,13.928 v 6.603 l 5.719,-9.904 z m -12.179,6.603 v -6.603 l -5.718,-3.301 z m -11.866,-6.603 v 6.603 l 5.718,-9.904 z m -0.157,6.603 v -6.603 l -5.718,-3.302 z m -12.023,0 V 13.928 L 96.396,10.626 Z M 90.171,13.793 95.889,10.491 H 84.452 Z m -12.022,0 5.718,-3.302 H 72.429 Z m -12.024,0 5.718,-3.302 H 60.407 Z m -12.022,0 5.718,-3.302 H 48.384 Z m -12.024,0 5.719,-3.302 H 36.362 Z m -12.022,0 5.719,-3.302 H 24.339 Z m -12.023,0 5.719,-3.302 H 12.316 Z m -12.023,0 5.719,-3.302 H 0.293 Z m 132.251,-10e-4 5.718,-3.302 h -11.437 z m -12.023,0 5.718,-3.302 h -11.436 z m -12.023,0 5.719,-3.302 h -11.437 z m -12.023,0 5.719,-3.302 H 96.476 Z M 84.452,10.334 H 95.889 L 90.171,7.033 Z m -12.023,0 H 83.867 L 78.149,7.033 Z m -12.022,0 H 71.843 L 66.125,7.033 Z m -12.023,0 H 59.821 L 54.103,7.033 Z m -12.022,0 H 47.798 L 42.079,7.033 Z m -12.023,0 H 35.776 L 30.057,7.033 Z m -12.023,0 H 23.753 L 18.034,7.033 Z m -12.023,0 H 11.73 L 6.011,7.033 Z m 132.25,-10e-4 h 11.437 l -5.718,-3.3 z m -12.022,0 h 11.436 l -5.718,-3.3 z m -12.023,0 h 11.437 l -5.719,-3.3 z m -12.022,0 h 11.436 l -5.719,-3.3 z m 41.864,-3.436 5.719,3.301 -5.719,-9.905 z m -29.921,3.301 5.719,-3.301 V 0.293 Z m -12.023,0 5.719,-3.301 V 0.293 Z m -6.147,-3.301 5.719,3.301 -5.719,-9.905 z m -5.875,3.301 5.719,-3.301 V 0.293 Z m -6.148,-3.301 5.72,3.301 -5.72,-9.905 z M 72.352,10.198 78.07,6.897 V 0.293 Z m -6.149,-3.301 5.719,3.301 -5.719,-9.905 z m -5.875,3.301 5.719,-3.301 V 0.293 Z M 54.181,6.897 59.9,10.198 54.181,0.293 Z m -5.876,3.301 5.719,-3.301 V 0.293 Z m -6.146,-3.301 5.718,3.301 -5.718,-9.905 z m -5.875,3.301 5.717,-3.301 V 0.293 Z M 30.136,6.897 35.853,10.198 30.136,0.293 Z M 24.26,10.198 29.979,6.897 V 0.293 Z M 18.113,6.897 23.83,10.198 18.113,0.293 Z m -5.876,3.301 5.719,-3.301 V 0.293 Z M 6.09,6.897 11.809,10.198 6.09,0.293 Z M 0.214,10.198 5.933,6.897 V 0.293 Z m 132.251,-0.001 5.718,-3.3 V 0.293 Z m -6.147,-3.3 5.718,3.3 -5.718,-9.904 z m -5.875,3.3 5.718,-3.3 V 0.293 Z m -6.148,-3.3 5.718,3.3 -5.718,-9.904 z m -12.023,0 5.718,3.3 -5.718,-9.904 z m 30.057,-3.382 v 6.605 l 5.718,-9.905 z m -0.157,6.605 V 3.515 l -5.718,-3.3 z M 120.306,3.515 v 6.605 l 5.718,-9.905 z m -0.157,6.605 V 3.515 l -5.719,-3.3 z M 108.284,3.515 v 6.605 l 5.717,-9.905 z m -0.158,6.605 V 3.515 L 102.408,0.214 Z M 96.26,3.515 v 6.605 l 5.72,-9.906 z M 96.104,10.12 V 3.516 L 90.386,0.215 Z M 84.237,3.516 V 10.12 L 89.956,0.215 Z M 84.081,10.12 V 3.516 L 78.363,0.215 Z M 72.215,3.516 V 10.12 L 77.934,0.215 Z M 72.059,10.12 V 3.516 L 66.34,0.215 Z M 60.192,3.515 V 10.12 L 65.911,0.215 Z M 60.035,10.12 V 3.515 l -5.718,-3.3 z M 48.17,3.516 V 10.12 L 53.888,0.215 Z M 48.013,10.12 V 3.516 L 42.295,0.215 Z M 36.147,3.516 V 10.12 L 41.864,0.215 Z M 35.99,10.12 V 3.516 L 30.272,0.215 Z M 24.124,3.516 V 10.12 L 29.842,0.215 Z M 23.967,10.12 V 3.516 L 18.248,0.215 Z M 12.101,3.515 V 10.12 L 17.819,0.215 Z M 11.945,10.12 V 3.515 l -5.72,-3.3 z M 0.078,3.516 V 10.12 L 5.797,0.215 Z m 144.117,6.602 V 3.515 l -5.718,-3.3 z M 96.183,3.381 V 3.38 l 5.718,-3.302 h -5.718 v 0.001 h -5.719 z m -12.024,0 5.719,-3.302 H 78.441 Z m -12.022,0 5.718,-3.302 H 66.418 Z m -12.023,0 5.718,-3.302 H 54.396 Z m -12.023,0 5.718,-3.302 h -5.718 -5.718 z m -12.023,0 5.719,-3.302 H 30.35 Z m -12.023,0 5.719,-3.302 H 18.328 Z m -12.022,0 5.718,-3.302 H 6.305 Z M 132.25,3.38 137.969,0.078 h -11.437 z m -12.023,0 5.719,-3.302 H 114.51 Z m -12.022,0 5.718,-3.302 h -11.436 z"
                 style="fill:url(#linearGradient6476);stroke:none"
                 id="path6478" />
            </g>
          </g>
        </g>
      </g>
      <g
         id="g6480">
        <g
           id="g6482"
           clip-path="url(#clipPath6486)">
          <g
             id="g6488">
            <g
               id="g6490">
              <path
                 d="M 144.274,41.648 V 41.57 h 5.718 l -5.718,-3.301 V 24.205 l 5.718,-3.303 h -5.718 v -0.156 h 5.718 l -5.718,-3.301 V 3.381 l 5.718,-3.302 h -5.718 V 0 h 47.876 0.215 47.877 48.09 v 0.078 h -5.718 l 5.718,3.302 v 14.064 l -5.718,3.301 h 5.718 v 0.157 h -5.718 l 5.718,3.303 v 14.064 l -5.718,3.301 h 5.718 v 0.078 z M 270.592,41.57 h 11.437 l -5.719,-3.302 z m -12.024,0 h 11.438 l -5.719,-3.302 z m -12.022,0 h 11.436 l -5.717,-3.302 z m -12.022,0 h 5.718 5.718 l -5.718,-3.301 z m -12.024,0 h 11.437 l -5.719,-3.301 z m -12.022,0 h 11.436 l -5.719,-3.301 z m -12.023,0 h 11.437 l -5.719,-3.301 z m -11.808,0 h 5.503 0.215 5.504 l -5.611,-3.239 z m -12.023,0 h 11.437 l -5.719,-3.301 z m -12.024,0 h 11.438 l -5.718,-3.301 z m -12.022,0 h 11.436 l -5.717,-3.301 z m 131.958,-0.137 5.718,-3.301 V 31.53 Z m -6.149,-3.301 5.72,3.301 -5.72,-9.903 z m -5.873,3.301 5.718,-3.301 v -6.603 z m -6.149,-3.301 5.719,3.301 -5.719,-9.904 z m -5.875,3.301 5.719,-3.301 v -6.603 z m -6.147,-3.301 5.718,3.301 -5.309,-9.196 -0.409,-0.707 z m -5.876,3.301 5.718,-3.301 V 31.53 Z m -6.146,-3.301 5.717,3.301 -5.717,-9.903 z m -5.876,3.301 5.718,-3.301 V 31.53 Z m -6.148,-3.301 5.718,3.301 -5.718,-9.903 z m -5.875,3.301 5.719,-3.301 V 31.53 Z m -6.147,-3.301 5.717,3.301 -5.717,-9.903 z m -5.876,3.301 5.718,-3.301 V 31.53 Z m -6.147,-3.3 5.718,3.3 -5.31,-9.196 -0.408,-0.707 z m -5.876,3.3 5.719,-3.3 V 31.53 Z m -6.011,-3.222 5.582,3.222 -5.582,-9.667 z m -5.797,3.222 5.582,-3.222 v -6.445 z m -6.148,-3.301 5.719,3.301 -5.719,-9.903 z m -5.874,3.301 5.718,-3.301 V 31.53 Z m -6.149,-3.301 5.72,3.301 -5.72,-9.903 z m -5.874,3.301 5.719,-3.301 V 31.53 Z m -6.148,-3.3 5.718,3.3 -5.308,-9.196 -0.41,-0.707 z m -5.876,3.3 5.718,-3.3 V 31.53 Z m -6.146,-3.3 5.717,3.3 -5.717,-9.903 z m 89.956,-3.38 v 6.603 l 5.717,-9.905 z m -0.158,6.603 v -6.603 l -5.717,-3.302 z m -11.865,-6.603 v 6.603 l 5.718,-9.905 z m -0.157,6.603 v -6.603 l -5.719,-3.302 z m -11.866,-6.603 v 6.603 l 5.718,-9.905 z m -0.156,6.603 v -6.603 l -5.719,-3.302 z M 198.24,34.753 v 6.603 l 5.719,-9.905 z m -0.157,6.603 v -6.603 l -5.718,-3.302 z m -11.652,-6.603 v 6.603 l 5.718,-9.905 z m -0.155,6.603 v -6.603 l -5.719,-3.302 z m -11.867,-6.603 v 6.603 l 5.718,-9.905 z m -0.156,6.603 v -6.603 l -5.719,-3.302 z m -11.867,-6.603 v 6.603 l 5.719,-9.905 z m -0.157,6.603 v -6.603 l -5.718,-3.302 z m -11.866,-6.603 v 6.603 l 5.719,-9.905 z m -0.157,6.603 v -6.603 l -5.717,-3.302 z m 132.193,-6.603 v 6.602 l 5.718,-9.904 z m -0.155,6.602 v -6.602 l -5.72,-3.302 z m -11.867,-6.602 v 6.602 l 5.718,-9.904 z m -0.157,6.602 v -6.602 l -5.718,-3.302 z m -11.866,-6.602 v 6.602 l 5.719,-9.904 z m -0.157,6.602 v -6.602 l -5.718,-3.302 z m -11.866,-6.603 v 6.603 l 5.718,-9.904 z m -0.157,6.603 v -6.603 l -5.718,-3.301 z M 192.228,31.63 v 6.503 l 0.029,0.016 0.029,-0.017 V 31.63 l -0.028,-0.05 z m 90.093,2.987 5.718,-3.302 h -11.437 z m -17.741,-3.302 5.719,3.302 5.717,-3.303 z m -6.304,3.302 5.717,-3.302 h -11.435 z m -12.023,0 5.718,-3.302 h -11.437 z m -12.023,0 5.718,-3.302 h -11.436 z m -12.023,0 5.719,-3.302 H 216.49 Z m -12.023,0 5.719,-3.302 h -11.437 z m -12.023,0 5.719,-3.302 h -11.437 z m -11.807,0 5.718,-3.302 h -11.438 z m -12.023,0 5.718,-3.302 h -11.437 z m -12.023,0 5.718,-3.302 H 156.59 Z m -12.022,0 5.718,-3.302 h -11.438 z m 90.082,-3.454 -0.088,0.05 v 10e-4 l 4.151,-2.397 z m 36.234,-0.005 h 11.437 l -5.718,-3.302 z m -12.023,0 h 11.437 l -5.717,-3.302 z m -12.021,0 h 11.436 l -5.718,-3.302 z m -12.024,0 h 11.437 l -5.718,-3.302 z m -12.022,0 h 11.436 l -5.718,-3.301 z m -12.023,0 h 11.437 l -5.719,-3.301 z m -12.023,0 h 11.437 l -5.719,-3.301 z m -12.023,0 h 11.437 l -5.719,-3.301 z m -11.809,0 h 11.438 l -5.718,-3.301 z m -12.022,0 h 11.437 l -5.718,-3.301 z m -12.022,0 h 11.436 l -5.718,-3.301 z m -12.024,0 h 11.438 l -5.718,-3.301 z m 65.697,-3.438 5.718,3.302 -5.718,-9.904 z m -5.875,3.302 5.719,-3.302 v -6.602 z m -42.002,-3.302 5.719,3.302 -5.719,-9.904 z m -5.875,3.302 5.718,-3.302 v -6.602 z m 125.888,-3.302 5.718,3.301 -5.718,-9.903 z m -5.875,3.301 5.72,-3.301 v -6.603 z m -6.147,-3.301 5.718,3.301 -1.615,-2.796 -4.103,-7.107 z m -5.875,3.301 5.718,-3.301 v -6.602 z m -6.148,-3.301 5.719,3.301 -5.719,-9.903 z m -5.875,3.301 5.718,-3.301 v -6.602 z m -6.148,-3.301 5.718,3.301 -5.718,-9.904 z m -5.875,3.301 5.718,-3.301 v -6.602 z m -6.147,-3.301 5.717,3.301 -5.717,-9.903 z m -5.875,3.301 5.717,-3.301 v -6.602 z m -6.148,-3.301 5.718,3.301 -1.614,-2.796 -4.104,-7.107 z m -5.876,3.301 5.719,-3.301 v -6.602 z m -18.17,-3.3 5.719,3.3 -5.719,-9.903 z m -5.875,3.3 5.718,-3.3 v -6.603 z m -5.934,-3.301 5.718,3.301 -5.718,-9.903 z m -5.874,3.301 5.719,-3.301 v -6.602 z m -6.148,-3.301 5.718,3.301 -1.614,-2.796 -4.104,-7.107 z m -5.875,3.301 5.719,-3.301 v -6.602 z m -18.171,-3.3 5.719,3.3 -5.719,-9.903 z m -5.874,3.3 5.717,-3.3 v -6.603 z m 119.72,-0.077 V 24.34 l -5.719,-3.302 z m -24.046,0 V 24.34 l -5.718,-3.301 z M 228.297,24.34 v 6.604 l 5.717,-9.905 z m -0.156,6.604 V 24.34 l -5.719,-3.301 z M 216.275,24.34 v 6.604 l 5.717,-9.905 z m -0.158,6.604 V 24.34 l -5.719,-3.301 z M 204.252,24.34 v 6.604 l 5.718,-9.905 z m -0.157,6.604 V 24.34 l -5.719,-3.301 z M 180.42,24.34 v 6.604 l 5.719,-9.905 z m -0.156,6.604 V 24.34 l -5.719,-3.301 z M 168.397,24.34 v 6.604 l 5.72,-9.905 z m -0.155,6.604 V 24.34 l -5.719,-3.301 z M 156.375,24.34 v 6.604 l 5.719,-9.905 z m -0.158,6.604 V 24.34 L 150.5,21.039 Z M 144.353,24.34 v 6.604 l 5.717,-9.905 z m 143.901,6.603 V 24.34 l -5.719,-3.302 z M 276.387,24.34 v 6.603 l 5.719,-9.905 z m -0.155,6.603 V 24.34 l -5.719,-3.302 z M 264.365,24.34 v 6.603 l 5.719,-9.905 z m -12.022,0 v 6.603 l 5.718,-9.905 z m -0.158,6.603 V 24.34 l -5.718,-3.302 z M 240.321,24.34 v 6.603 l 5.717,-9.905 z m -48.093,0 v 6.504 l 0.03,0.049 0.028,-0.049 V 24.34 l -0.029,-0.017 z m 0.137,-0.078 v 6.446 l 5.582,-9.669 z m -0.215,6.446 v -6.446 l -5.582,-3.223 z m -9.787,-2.971 3.917,-6.786 0.074,-0.126 h -0.002 z m 95.967,-10e-4 3.918,-6.785 0.072,-0.127 z m 7.648,-0.578 -3.584,-6.207 -0.073,-0.126 z m -95.968,0 -3.583,-6.207 -0.073,-0.126 z m 38.189,-2.874 0.019,0.012 2.28,-1.316 -2.26,1.304 -0.02,0.011 -5.654,-3.265 z m -47.877,0 0.02,0.012 2.279,-1.316 -2.259,1.304 -0.02,0.011 -5.655,-3.265 z m 96.007,-10e-4 -0.019,0.012 2.279,-1.316 z m -0.019,-0.078 5.719,-3.303 h -11.437 z m -12.023,0 5.719,-3.303 h -11.438 z m -12.022,0 5.717,-3.303 h -11.436 z m -12.023,0 v -10e-4 l 5.718,-3.302 h -5.718 -5.718 z m -12.024,0 5.719,-3.303 H 222.5 Z m -17.74,-3.302 5.717,3.302 5.719,-3.303 z m -6.305,3.302 5.719,-3.303 h -11.437 z m -23.831,0 5.719,-3.303 h -11.437 z m -17.741,-3.302 5.719,3.302 5.718,-3.303 z m -6.304,3.302 5.717,-3.303 h -11.436 z m 35.961,-0.062 5.611,-3.241 h -5.504 -0.215 -5.503 z m 90.063,-3.32 v 0.001 l 0.045,-0.078 z m -42.079,-3.378 -5.718,3.301 h 5.718 v -10e-4 h 5.718 l -5.718,-3.301 z M 222.5,20.746 h 11.437 l -5.719,-3.301 z m -12.022,0 h 11.436 l -5.719,-3.301 z m -12.023,0 h 11.437 l -5.719,-3.301 z m -11.808,0 h 5.503 0.215 5.504 l -5.611,-3.24 z m -12.023,0 h 11.437 l -5.719,-3.301 z m -12.024,0 h 11.438 l -5.718,-3.301 z m -12.022,0 h 11.436 l -5.717,-3.301 z m 120.014,-10e-4 h 11.437 l -5.719,-3.301 z m -12.024,0 h 11.438 l -5.719,-3.301 z m -12.022,0 h 11.436 l -5.717,-3.301 z m -12.101,-0.135 5.718,-3.301 v -6.603 z m -7.865,-7.203 -4.158,7.203 5.719,-3.301 v -6.603 z m -10.305,3.902 5.717,3.301 -5.717,-9.904 z m -5.876,3.301 5.718,-3.301 v -6.603 z m -6.147,-3.301 5.718,3.301 -5.718,-9.904 z m -5.876,3.301 5.719,-3.301 v -6.603 z m -6.011,-3.223 5.582,3.223 -5.582,-9.669 z m -5.797,3.223 5.582,-3.223 v -6.446 z m -7.865,-7.203 -4.157,7.203 5.718,-3.301 v -6.603 z m -10.306,3.902 5.72,3.301 -5.72,-9.904 z m -5.874,3.301 5.719,-3.301 v -6.603 z m -6.148,-3.301 5.719,3.301 -5.719,-9.904 z m -5.875,3.301 5.717,-3.301 v -6.603 z m -6.147,-3.301 5.717,3.301 -5.717,-9.904 z m 138.182,3.3 5.719,-3.301 v -6.602 z m -6.148,-3.301 5.719,3.301 -5.719,-9.903 z m -1.716,-3.901 -4.157,7.202 5.718,-3.301 v -6.602 z m -10.306,3.901 5.719,3.301 -5.719,-9.903 z m -5.875,3.301 5.719,-3.301 v -6.602 z m -6.147,-3.301 5.718,3.301 -5.718,-9.903 z m -5.876,3.301 5.718,-3.301 v -6.602 z m -6.146,-3.301 5.717,3.301 -5.717,-9.903 z m -12.024,0.001 5.717,3.3 -5.717,-9.903 z m -47.877,0 5.719,3.3 -5.719,-9.903 z m 101.824,3.223 v -6.604 l -5.72,-3.301 z m -11.867,-6.604 v 6.604 l 5.718,-9.905 z m -24.046,0 v 6.604 l 5.718,-9.906 z m -12.022,0 v 6.604 l 5.717,-9.905 z m -0.158,6.604 v -6.604 l -5.717,-3.301 z m -11.865,-6.604 v 6.604 l 5.718,-9.905 z m -0.157,6.604 v -6.604 l -5.719,-3.301 z m -11.866,-6.604 v 6.604 l 5.718,-9.905 z m -0.156,6.604 v -6.604 l -5.719,-3.301 z M 198.24,13.928 v 6.604 l 5.719,-9.905 z m -0.157,6.604 v -6.604 l -5.718,-3.301 z m -11.652,-6.604 v 6.604 l 5.718,-9.905 z m -0.155,6.604 v -6.604 l -5.719,-3.301 z m -11.867,-6.604 v 6.604 l 5.718,-9.905 z m -0.156,6.604 v -6.604 l -5.719,-3.301 z m -11.867,-6.604 v 6.604 l 5.719,-9.905 z m -0.157,6.604 v -6.604 l -5.718,-3.301 z m -11.866,-6.604 v 6.604 l 5.719,-9.905 z m -0.157,6.604 v -6.604 l -5.717,-3.301 z m 132.193,-6.604 v 6.603 l 5.718,-9.904 z m -12.179,6.603 v -6.603 l -5.718,-3.301 z m -11.866,-6.603 v 6.603 l 5.719,-9.904 z m -0.157,6.603 v -6.603 l -5.718,-3.302 z m -12.023,0 v -6.603 l -5.718,-3.302 z m -53.946,-9.726 v 6.504 l 0.03,0.016 0.028,-0.016 v -6.504 l -0.028,-0.049 z m 42.002,2.988 5.718,-3.302 h -11.436 z m -12.023,0 5.719,-3.302 H 216.49 Z m -12.023,0 5.719,-3.302 h -11.437 z m -12.023,0 5.719,-3.302 h -11.437 z m -11.807,0 5.718,-3.302 h -11.438 z m -12.023,0 5.718,-3.302 h -11.437 z m -12.023,0 5.718,-3.302 H 156.59 Z m -12.022,0 5.718,-3.302 h -11.438 z m 132.035,-10e-4 5.718,-3.302 h -11.437 z m -12.022,0 5.717,-3.302 H 264.58 Z m -12.023,0 5.718,-3.302 h -11.436 z m -12.023,0 5.718,-3.302 h -11.437 z m -17.741,-3.458 h 11.436 L 234.23,7.033 Z m -12.022,0 h 11.436 l -5.719,-3.301 z m -12.024,0 h 11.437 l -5.719,-3.301 z m -12.023,0 h 11.437 l -5.719,-3.301 z m -11.809,0 h 11.438 l -5.718,-3.301 z m -12.022,0 h 11.437 l -5.718,-3.301 z m -12.022,0 h 11.436 l -5.718,-3.301 z m -12.024,0 h 11.438 l -5.718,-3.301 z m 132.036,-10e-4 h 11.437 l -5.718,-3.3 z m -12.022,0 h 11.436 l -5.717,-3.3 z m -12.022,0 h 11.436 l -5.718,-3.3 z m -12.024,0 h 11.437 l -5.718,-3.3 z m 41.865,-3.436 5.719,3.301 -5.719,-9.905 z m -29.92,3.301 5.718,-3.301 V 0.293 Z m -12.024,0 5.719,-3.301 V 0.293 Z m -6.146,-3.301 5.718,3.301 -5.718,-9.905 z m -5.875,3.301 5.717,-3.301 V 0.293 Z m -6.148,-3.301 5.718,3.301 -5.718,-9.905 z m -5.876,3.301 5.719,-3.301 V 0.293 Z m -6.147,-3.301 5.718,3.301 -5.718,-9.905 z m -5.875,3.301 5.719,-3.301 V 0.293 Z m -6.148,-3.301 5.719,3.301 -5.719,-9.905 z m -5.875,3.3 v 0.001 l 5.718,-3.301 V 0.293 Z m -5.934,-3.3 5.719,3.301 v -0.001 l -5.719,-9.904 z m -5.874,3.301 5.719,-3.301 V 0.293 Z m -6.148,-3.301 5.719,3.301 -5.719,-9.905 z m -5.875,3.301 5.719,-3.301 V 0.293 Z m -6.148,-3.301 5.719,3.301 -5.719,-9.905 z m -5.875,3.301 5.718,-3.301 V 0.293 Z m -6.148,-3.301 5.719,3.301 -5.719,-9.905 z m -5.874,3.301 5.717,-3.301 V 0.293 Z m 132.035,-0.001 5.72,-3.3 V 0.293 Z m -6.147,-3.3 5.718,3.3 -5.718,-9.904 z m -5.875,3.3 5.718,-3.3 V 0.293 Z m -6.148,-3.3 5.719,3.3 -5.719,-9.904 z m -12.023,0 5.718,3.3 -5.718,-9.904 z m 30.056,-3.382 v 6.605 l 5.72,-9.905 z m -0.155,6.605 V 3.515 l -5.718,-3.3 z M 264.365,3.515 v 6.605 l 5.719,-9.905 z m -0.156,6.605 V 3.515 l -5.719,-3.3 z M 252.343,3.515 v 6.605 l 5.718,-9.905 z m -0.158,6.605 V 3.515 L 246.467,0.214 Z M 240.321,3.515 v 6.605 l 5.717,-9.906 z m -0.158,6.605 V 3.516 L 234.445,0.215 Z M 228.297,3.516 v 6.604 l 5.718,-9.905 z m -0.156,6.604 V 3.516 L 222.422,0.215 Z M 216.275,3.516 v 6.604 l 5.717,-9.905 z m -0.158,6.604 V 3.516 L 210.399,0.215 Z M 204.252,3.515 v 6.605 l 5.718,-9.905 z m -0.157,6.605 V 3.515 l -5.719,-3.3 z M 180.42,3.516 v 6.604 l 5.719,-9.905 z m -0.156,6.604 V 3.516 L 174.546,0.215 Z M 168.397,3.516 v 6.604 l 5.72,-9.905 z m -0.155,6.604 V 3.516 L 162.523,0.215 Z M 156.375,3.515 v 6.605 l 5.718,-9.905 z m -0.158,6.605 V 3.515 l -5.718,-3.3 z M 144.353,3.516 v 6.604 l 5.717,-9.905 z m 143.901,6.602 V 3.515 l -5.718,-3.3 z M 192.228,3.516 v 6.504 l 0.03,0.049 0.028,-0.049 V 3.516 L 192.258,3.5 Z m 0.137,-0.078 v 6.446 l 5.582,-9.669 z M 192.15,9.883 V 3.438 L 186.568,0.215 Z M 240.242,3.381 V 3.38 l 5.718,-3.302 h -5.718 v 0.001 h -5.718 z m -12.024,0 5.719,-3.302 H 222.5 Z m -12.023,0 5.719,-3.302 h -11.436 z m -12.022,0 5.719,-3.302 h -11.437 z m -23.831,0 5.719,-3.302 h -11.437 z m -12.022,0 5.718,-3.302 H 162.6 Z m -12.023,0 5.717,-3.302 H 150.578 Z M 276.31,3.38 282.029,0.078 h -11.437 z m -12.023,0 5.719,-3.302 h -11.438 z m -12.022,0 5.717,-3.302 h -11.436 z m -60.007,-0.062 5.611,-3.239 h -5.504 -0.215 -5.503 z"
                 style="fill:url(#linearGradient6504);stroke:none"
                 id="path6506" />
            </g>
          </g>
        </g>
      </g>
    </g>
  </g>
</svg>
