<?xml version="1.0" encoding="UTF-8" standalone="no"?>
<svg
   xmlns:dc="http://purl.org/dc/elements/1.1/"
   xmlns:cc="http://creativecommons.org/ns#"
   xmlns:rdf="http://www.w3.org/1999/02/22-rdf-syntax-ns#"
   xmlns:svg="http://www.w3.org/2000/svg"
   xmlns="http://www.w3.org/2000/svg"
   id="svg8"
   version="1.1"
   viewBox="0 0 245.5098 225.01378"
   height="225.01378mm"
   width="245.5098mm">
  <defs
     id="defs2" />
  <metadata
     id="metadata5">
    <rdf:RDF>
      <cc:Work
         rdf:about="">
        <dc:format>image/svg+xml</dc:format>
        <dc:type
           rdf:resource="http://purl.org/dc/dcmitype/StillImage" />
        <dc:title></dc:title>
      </cc:Work>
    </rdf:RDF>
  </metadata>
  <g
     transform="translate(321.47677,42.860205)"
     id="layer1">
    <path
       id="path826"
       d="M -280.20635,123.00204 V 102.8908 l 20.02014,0.0911 20.02014,0.0911 0.0911,20.02014 0.0911,20.02013 h -20.11124 -20.11125 z m 34.21944,0.1793 v -14.2875 h -14.2875 -14.2875 v 14.05231 c 0,7.72878 0.10584,14.15815 0.23519,14.2875 0.12935,0.12936 6.55872,0.23519 14.2875,0.23519 h 14.05231 z m -22.69537,8.40787 c -0.12935,-0.12935 -0.23518,-4.01872 -0.23518,-8.64306 v -8.40786 h 8.64305 8.64306 v 8.64305 8.64306 h -8.40787 c -4.62433,0 -8.51371,-0.10584 -8.64306,-0.23519 z m 34.33704,-2.76343 v -14.28749 h 2.82222 2.82223 v 2.82222 2.82222 h 2.82222 2.82222 v 8.64305 8.64306 h 2.82222 2.82223 v -5.82083 -5.82084 h 5.83567 5.83567 l -0.10303,-2.73402 -0.10304,-2.73403 -2.91041,-0.10246 -2.91042,-0.10246 v -5.63018 -5.63018 h 2.99861 2.99861 v 2.82222 2.82223 h 5.64445 5.64444 v -2.82223 -2.82222 h -2.82222 -2.82222 v -5.82083 -5.820834 h -2.82222 -2.82223 v 3.012874 3.01288 l -2.91041,-0.10246 -2.91042,-0.10246 -0.1027,-2.92499 -0.1027,-2.925002 -2.71952,0.102775 -2.71953,0.102771 -0.10246,2.910416 -0.10246,2.91042 h -2.80795 -2.80796 v -2.99861 -2.998614 h -2.82222 -2.82222 v 5.820834 5.82083 h -2.81349 -2.81348 l -0.0969,-5.73264 -0.0969,-5.732636 -5.73264,-0.09693 -5.73264,-0.09693 V 94.42122 91.607736 h -2.82222 -2.82222 v 2.822223 2.822222 h -8.64306 -8.64305 v -5.644445 -5.644444 h 5.82083 5.82083 V 83.14107 80.318848 h -2.82222 -2.82222 v -2.822222 -2.822222 h -2.82222 -2.82223 v 2.822222 2.822222 h -2.99861 -2.99861 v 8.466666 8.466667 h -2.82222 -2.82222 V 85.786898 74.321621 h 5.64444 5.64445 v -2.822222 -2.822222 h -5.64445 -5.64444 v -2.822222 -2.822222 h 5.63817 5.63817 l 0.0945,-8.55486 0.0945,-8.554861 5.73263,-0.09693 5.73264,-0.09693 v -2.813483 -2.813484 h 5.64445 5.64444 v -2.822222 -2.822222 h -5.64444 -5.64445 v -2.822222 -2.822222 h -2.82222 -2.82222 v 5.644444 5.644444 h -2.99861 -2.99861 v -5.644444 -5.644444 h -5.64445 -5.64444 v -2.822222 -2.822222 h 14.2875 14.2875 v 2.822222 2.822222 h 2.82222 2.82222 v -2.822222 -2.822222 h 14.2875 14.28751 v 2.822222 2.822222 h -2.82223 -2.82222 v 5.644444 5.644444 h 2.82222 2.82223 v -2.822222 -2.822222 h 5.82083 5.82083 v -2.822222 -2.822222 h -2.99861 -2.99861 v -8.643055 -8.643055 h 2.99861 2.99861 v 5.820833 5.820833 h 5.64445 5.64444 v 2.822222 2.822222 h -2.82222 -2.82222 v 5.644444 5.644444 h -5.64445 -5.64444 v 5.835671 5.835674 l 2.73403,-0.103036 2.73402,-0.103032 0.10246,-2.910416 0.10247,-2.910417 h 5.63017 5.63018 v -5.644444 -5.644444 h 5.82084 5.82083 v 2.807956 2.807955 l -2.91042,0.102461 -2.91041,0.102461 -0.10304,2.734027 -0.10303,2.734028 h 5.83567 5.83567 v -5.644444 -5.644444 h 2.82223 2.82222 v -2.822222 -2.822222 h 5.64444 5.64445 v -2.822222 -2.822222 h 2.99861 2.99861 v 2.822222 2.822222 h 2.82222 2.82223 v -2.822222 -2.822222 h 2.82222 2.82222 v 2.822222 2.822222 h 2.82222 2.82223 v -2.822222 -2.822222 h 2.82222 2.82222 v 2.822222 2.822222 h -2.82222 -2.82222 v 5.644444 5.644444 h 2.82222 2.82222 v 2.822222 2.822222 h 2.82222 2.82223 v -2.822222 -2.822222 h 2.99861 2.99861 v 2.998611 2.998611 h -2.82222 -2.82223 v 2.822222 2.822222 h -5.82083 -5.82083 v 2.822222 2.822222 h 5.82083 5.82083 v 2.822222 2.822222 h 2.82223 2.82222 v 2.822222 2.822222 h -2.82222 -2.82223 v 8.643055 8.643055 h 2.82223 2.82222 v 2.822222 2.822222 h 2.82222 2.82222 v 5.820833 5.82084 h -5.64444 -5.64445 v 2.82222 2.82222 h -5.82083 -5.82083 v 5.64445 5.64444 h 2.82222 2.82222 v -2.82222 -2.82222 h 5.82083 5.82084 v -2.82223 -2.82222 h 2.82222 2.82222 v 8.46667 8.46666 h -2.82222 -2.82222 v 5.82084 5.82083 h -2.82222 -2.82223 v 2.82222 2.82222 h -2.99861 -2.99861 v -2.82222 -2.82222 h -2.82222 -2.82222 v 2.82222 2.82222 h -5.64445 -5.64444 v -2.80738 -2.80738 l 2.73402,-0.10304 2.73403,-0.10303 0.10288,-2.72522 0.10287,-2.72522 -5.74732,-0.097 -5.74732,-0.097 -0.10246,-2.91042 -0.10246,-2.91042 h 3.02772 3.02772 l -0.10304,-2.73402 -0.10303,-2.73403 -8.55486,-0.0945 -8.55487,-0.0945 v 2.8285 2.82849 h 2.81349 2.81348 l 0.0969,5.73264 0.0969,5.73264 2.91041,0.10246 2.91042,0.10246 v 2.80796 2.80795 h -2.99861 -2.99861 v -2.82222 -2.82222 h -2.82222 -2.82223 v 2.82222 2.82222 h -2.82222 -2.82222 v -5.82083 -5.82083 h 2.82222 2.82222 v -2.82222 -2.82223 h -5.64444 -5.64445 v 2.99861 2.99862 h -5.82083 -5.82083 v 5.64444 5.64444 h -2.82223 -2.82222 v -2.82222 -2.82222 h -2.82222 -2.82222 v -2.99861 -2.99861 h 2.82222 2.82222 v -2.82222 -2.82223 h -5.64444 -5.64445 v 2.99861 2.99862 h -2.82222 -2.82222 v 2.82222 2.82222 h 2.82222 2.82222 v 2.82222 2.82222 h -8.64305 -8.64306 v -2.82222 -2.82222 h -2.82222 -2.82222 v 2.82222 2.82222 h -2.82223 -2.82222 z m 108.30279,5.82084 v -2.82222 h -2.82223 -2.82222 v 2.58703 c 0,1.42287 0.10583,2.69287 0.23519,2.82222 0.12935,0.12936 1.39935,0.23519 2.82222,0.23519 h 2.58704 z m -62.79445,-11.64167 v -2.82222 h 2.82222 2.82222 v -2.82222 -2.82222 h -5.64444 -5.64445 v 5.64444 5.64444 h 2.82222 2.82223 z m 11.56831,0.0882 -0.10303,-2.73403 -2.73403,-0.10303 -2.73403,-0.10304 v 2.83706 2.83706 h 2.83706 2.83706 z m 39.93725,-0.0882 v -2.82222 h -2.82223 -2.82222 v 2.82222 2.82222 h 2.82222 2.82223 z m -28.57501,-8.46666 v -5.64445 h -2.82222 -2.82222 v -2.82222 -2.82222 h -2.82222 -2.82223 v 2.82222 2.82222 h -2.82222 -2.82222 v 2.82222 2.82223 h 2.82222 2.82222 v 2.82222 2.82222 h 5.64445 5.64444 z m 22.93056,-8.64933 v -8.649329 l -8.55486,0.09447 -8.55486,0.09447 -0.095,8.106259 c -0.0523,4.45844 -0.0176,8.30813 0.0771,8.55486 0.13267,0.34574 2.11618,0.44861 8.64988,0.44861 h 8.47774 z m -11.56774,0.0945 0.10246,-2.91042 2.91042,-0.10246 2.91042,-0.10246 v 3.01287 3.01288 h -3.01288 -3.01288 z m -28.64893,0.0882 v -2.82222 h -2.82222 -2.82222 v 2.58703 c 0,1.42288 0.10583,2.69288 0.23518,2.82223 0.12935,0.12935 1.39935,0.23518 2.82223,0.23518 h 2.58703 z m -5.64444,-5.99722 v -2.822224 h 2.82222 2.82222 v -2.822222 -2.822223 h 5.82084 5.82083 v -2.822222 -2.822222 h 5.64444 5.64445 v -2.822222 -2.822222 h -5.64445 -5.64444 v 2.822222 2.822222 h -8.64306 -8.64305 v 5.629607 5.629602 l -2.73403,0.103036 -2.73403,0.103032 -0.10303,2.734026 -0.10304,2.73403 h 2.83707 2.83706 z m 22.93055,0 v -2.822224 h -2.82222 -2.82222 v 2.822224 2.82222 h 2.82222 2.82222 z M -217.4119,88.785509 v -8.466666 h -2.82223 -2.82222 v -2.822222 -2.822222 h -2.82222 -2.82222 v 2.822222 2.822222 h -5.64445 -5.64444 v 2.822222 2.822222 h -2.99862 -2.99861 v -2.822222 -2.822222 h -2.82222 -2.82222 v 2.822222 2.822222 h -2.82222 -2.82223 v 2.822222 2.822222 h 2.82223 2.82222 v -2.822222 -2.822222 h 2.82222 2.82222 v 2.822222 2.822222 h 5.82084 5.82083 v -2.822222 -2.822222 h 2.82222 2.82223 v 2.822222 2.822222 h 2.82222 2.82222 v 2.822223 2.822222 h 2.82222 2.82223 z m -11.28889,-5.644444 v -2.822222 h 2.82222 2.82222 v 2.822222 2.822222 h -2.82222 -2.82222 z m 22.93055,11.288889 v -2.822223 h 2.82223 2.82222 v -5.644444 -5.644444 h 5.64444 5.64445 V 74.49801 68.677177 h 5.82083 5.82083 v 2.998611 2.998611 h -2.82222 -2.82222 v 2.831179 2.831183 l 5.55625,-0.09716 5.55625,-0.09715 0.10246,-2.910416 0.10246,-2.910417 h 2.80796 2.80795 V 68.677174 63.03273 h 2.81595 2.81595 l 0.0945,8.554861 0.0945,8.55486 2.71952,0.102772 2.71953,0.102774 0.1027,-2.924996 0.10269,-2.924994 8.55486,-0.09447 8.55487,-0.09447 v -2.81595 -2.81595 h 5.64444 5.64445 v -2.822222 -2.822222 h -5.64445 -5.64444 v -2.822222 -2.822222 h -2.82223 -2.82222 v 5.644444 5.644444 h -2.82222 -2.82222 v -5.644444 -5.644444 h -2.82223 -2.82222 v 2.822222 2.822222 h -2.99861 -2.99861 v -2.822222 -2.822222 h -5.64445 -5.64444 V 54.570953 51.75362 l 11.37708,-0.09308 11.37709,-0.09308 0.10246,-2.910416 0.10246,-2.910417 h 2.80796 2.80795 v -5.644444 -5.644444 h -5.63571 -5.6357 l -0.0969,5.732638 -0.0969,5.732639 -5.73264,0.09693 -5.73264,0.09693 v -5.829571 -5.829571 h -2.82222 -2.82222 v 5.820833 5.820833 h -2.82222 -2.82223 v 2.822222 2.822222 h -2.82222 -2.82222 v 2.822222 2.822222 h -2.99861 -2.99861 V 51.743844 46.0994 h -2.82223 -2.82222 v 5.644444 5.644444 h -2.82222 -2.82222 v -2.822222 -2.822222 h -2.82222 -2.82223 v 2.822222 2.822222 h -2.99861 -2.99861 v -2.822222 -2.822222 h -2.82222 -2.82222 V 48.921622 46.0994 h -2.82223 -2.82222 v 2.822222 2.822222 h -2.82222 -2.82222 V 43.10079 34.457735 h -5.64445 -5.64444 v 2.807956 2.807955 l -2.91042,0.102461 -2.91042,0.102461 -0.10277,2.719525 -0.10277,2.719525 2.92499,0.102697 2.925,0.102697 0.10246,2.910416 0.10246,2.910417 h 2.80795 2.80796 v 5.644444 5.644444 h 2.82222 2.82223 v -2.822222 -2.822222 h 2.82222 2.82222 v -2.822222 -2.822222 h 2.82222 2.82223 v 8.451828 8.451825 l -2.73403,0.103036 -2.73403,0.103032 -0.10303,2.734028 -0.10304,2.734027 h 2.8228 2.82279 l 0.10246,2.910417 0.10246,2.910416 5.73264,0.09693 5.73264,0.09693 v 2.813484 2.813483 h -2.82222 -2.82222 v 5.644444 5.644445 h 2.82222 2.82222 z m -5.76203,-19.990741 c -0.12936,-0.12935 -0.23519,-2.748725 -0.23519,-5.820833 v -5.585647 h 2.99861 2.99861 v 2.822222 2.822222 h 5.64445 5.64444 v -5.644444 -5.644444 h 2.82222 2.82223 v 5.629606 5.629603 l -2.73403,0.103036 -2.73403,0.103032 -0.10246,2.910417 -0.10246,2.910416 h -8.39361 c -4.61648,0 -8.49943,-0.105833 -8.62878,-0.235186 z m 34.33703,-11.40648 v -5.644444 h 2.82223 2.82222 v 5.644444 5.644444 h -2.82222 -2.82223 z m 45.50834,31.397221 v -2.822223 h 2.82222 2.82223 v -2.822222 -2.822222 h -2.82223 -2.82222 v -5.644444 -5.644444 h -2.82222 -2.82222 v 2.822222 2.822222 h -8.46667 -8.46667 v 2.822222 2.822222 h 2.82222 2.82223 v 2.822222 2.822222 h 2.82222 2.82222 v -2.822222 -2.822222 h 2.82222 2.82223 v 5.644444 5.644445 h 2.82222 2.82222 z M -240.34246,77.496621 v -2.822222 h -2.82222 -2.82223 v 2.587036 c 0,1.422872 0.10584,2.692872 0.23519,2.822222 0.12935,0.129353 1.39935,0.235186 2.82222,0.235186 h 2.58704 z m -5.64445,-5.997222 v -2.822222 h 2.82223 2.82222 v -2.822222 -2.822222 h -5.64445 -5.64444 v -8.466666 -8.466666 h -2.82222 -2.82223 v 8.466666 8.466666 h 2.82223 2.82222 v 2.822222 2.822222 h -2.82222 -2.82223 v 2.822222 2.822222 h 5.64445 5.64444 z m 11.56831,0.08819 -0.10303,-2.734028 -2.73403,-0.103032 -2.73402,-0.103036 v 2.837064 2.837059 h 2.83706 2.83706 z m -28.575,-5.644444 -0.10303,-2.734028 -2.73403,-0.103032 -2.73403,-0.103036 v 2.837063 2.83706 h 2.83706 2.83707 z m 22.65114,-11.377083 V 51.74384 h -2.82222 -2.82223 v 2.587036 c 0,1.422872 0.10584,2.692872 0.23519,2.822222 0.12935,0.129353 1.39935,0.235186 2.82222,0.235186 h 2.58704 z m 103.01112,-5.644444 v -2.822222 h -2.82223 -2.82222 v 2.822222 2.822222 h 2.82222 2.82223 z m -103.01112,-17.28611 v -2.822222 h -2.82222 -2.82223 v 2.822222 2.822222 h 2.82223 2.82222 z m 85.725,0 v -2.822222 h -2.82222 -2.82222 v 2.822222 2.822222 h 2.82222 2.82222 z m -28.575,108.655552 v -2.82222 h 2.99861 2.99861 v 2.82222 2.82222 h -2.99861 -2.99861 z m 63.14723,-62.970833 v -2.998611 h 2.82222 2.82222 v 2.998611 2.998611 h -2.82222 -2.82222 z m -160.16112,-22.75416 v -2.822222 h 2.82222 2.82222 v 2.822222 2.822222 h -2.82222 -2.82222 z m 160.16112,0 v -2.822222 h 2.82222 2.82222 v 2.822222 2.822222 h -2.82222 -2.82222 z M -280.20635,43.10079 v -2.998611 h 2.82222 2.82222 v 2.998611 2.998611 h -2.82222 -2.82222 z m 160.16112,-11.465277 v -2.822222 h -2.99861 -2.99861 v -2.822222 -2.822222 h 2.99861 2.99861 v 2.822222 2.822222 h 2.82222 2.82222 v 2.822222 2.822222 h -2.82222 -2.82222 z m -63.14723,-5.644444 v -2.822222 h -2.82222 -2.82222 v -5.835671 -5.835674 l -2.73403,0.103035 -2.73403,0.103033 -0.10246,2.910416 -0.10246,2.910417 h -2.80796 -2.80795 V 8.8813475 0.23829248 h -2.82222 -2.82223 V 3.0605145 5.8827366 h -2.99861 -2.99861 V 3.0605145 0.23829248 h -2.82222 -2.82222 V 8.8813475 17.524403 h -2.82223 -2.82222 V 8.8813475 0.23829248 h -5.64444 -5.64445 V -2.5690917 -5.3764724 l 2.73403,-0.1030358 2.73403,-0.1030323 0.10303,-2.7340276 0.10304,-2.7340279 h -2.83707 -2.83706 v -2.998611 -2.998611 h 2.82222 2.82223 v -2.822222 -2.822222 h 2.82222 2.82222 v 5.644444 5.644445 h 2.82222 2.82223 v -2.822223 -2.822222 h 8.64305 8.64306 v 2.822222 2.822223 h 2.82222 2.82222 v -2.822223 -2.822222 h 2.82222 2.82223 v -2.822222 -2.822222 h 11.46528 11.46527 v 2.822222 2.822222 h -5.64444 -5.64445 v 2.998611 2.998611 h -2.82222 -2.82222 v 2.8222223 2.8222221 h 2.82222 2.82222 v 2.822222 2.82222208 h 2.82223 2.82222 v -2.82222208 -2.822222 h 2.82222 2.82222 v 2.822222 2.82222208 h 2.82223 2.82222 V 8.8813475 17.524403 h -2.82222 -2.82223 v 2.822222 2.822222 h -2.82222 -2.82222 v -2.822222 -2.822222 h -2.82222 -2.82223 V 8.8813475 0.23829248 h -2.82222 -2.82222 V 11.70357 23.168847 h 2.82222 2.82222 v 2.822222 2.822222 h -2.99861 -2.99861 z m 17.28611,-14.463888 V 5.8827366 h -2.82222 -2.82222 v 5.6444444 5.644444 h 2.82222 2.82222 z M -188.8369,3.0605145 V 0.23829248 h -2.82223 -2.82222 V 3.0605145 5.8827366 h 2.82222 2.82223 z m -28.575,-5.6444441 v -2.822222 h -2.82223 -2.82222 v 2.822222 2.82222208 h 2.82222 2.82223 z m 11.64166,0.014852 v -2.8073807 l 2.73403,-0.1030358 2.73403,-0.1030323 0.10303,-2.7340276 0.10304,-2.734028 h -5.65929 -5.65928 v 5.6444445 5.6444441 h 2.82222 2.82222 z m 22.57778,-0.014852 v -2.822222 h -2.82222 -2.82222 v 2.5870357 c 0,1.4228726 0.10583,2.69287255 0.23518,2.82222204 0.12935,0.12935302 1.39935,0.23518634 2.82223,0.23518634 h 2.58703 z m 0,-11.6565034 v -2.837064 l -2.73403,0.103036 -2.73402,0.103032 -0.10304,2.734028 -0.10303,2.734028 h 2.83706 2.83706 z m -97.01389,11.6594174 V -22.692262 h 20.11125 20.11124 l -0.0911,20.020138 -0.0911,20.020138 -20.02014,0.09111 -20.02014,0.0911 z m 34.21944,-0.1833033 V -17.055822 l -14.1993,0.0922 -14.19931,0.0922 -0.0922,14.199305 -0.0922,14.199305 h 14.2915 14.2915 z m -22.84863,0.092195 0.0945,-8.5548611 8.55486,-0.09447 8.55486,-0.09447 v 8.6493273 8.6493274 h -8.64933 -8.64933 z m 34.4903,14.3756939 V 5.8827366 h 2.82222 2.82223 v 5.8208334 5.820833 h -2.82223 -2.82222 z m 79.96297,5.585646 c -0.12935,-0.129349 -0.23519,-9.1780986 -0.23519,-20.1083318 V -22.692262 h 20.10834 20.10833 V -2.5839296 17.524403 h -19.87315 c -10.93023,0 -19.97898,-0.105834 -20.10833,-0.235187 z m 34.25284,-19.9613399 -0.0922,-14.1993051 -14.19931,-0.0922 -14.1993,-0.0922 V -2.7643189 11.527181 h 14.2915 14.2915 z m -22.84636,-0.094467 v -8.6493271 l 8.55486,0.09447 8.55486,0.09447 0.0945,8.5548609 0.0945,8.5548606 h -8.64933 -8.64933 z"
       style="fill:#000000;stroke-width:0.35277778" />
    <path
       id="path826-6"
       d="m -321.47257,9.9761443 c -0.0841,-0.26711 1.10101,-2.15856 3.03394,-4.8428 l 3.17154,-4.40441997 -0.89588,-3.45278003 c -0.49274,-1.89903 -1.18034,-4.30929 -1.52803,-5.35615 -0.34789,-1.04678 -0.54178,-2.0763903 -0.43134,-2.2878803 0.25677,-0.49165 0.60045,-0.41659 5.71581,1.2485103 2.33862,0.76124 4.55294,1.41591 4.92071,1.45484 0.36777,0.0389 2.67772,-1.2978 5.13322,-2.9704903 2.45551,-1.6727 4.65706,-2.94073 4.89233,-2.81786 0.23527,0.12287 0.44579,2.56085 0.46781,5.4177503 0.022,2.85689 0.13025,5.43838 0.24051,5.73665 0.11041,0.29822 2.00303,1.89181003 4.20615,3.54122 2.20313,1.6494 4.11152,3.30175 4.24086,3.67189 0.20412,0.58449 -0.47245,0.896 -5.14241,2.36913 l -5.3776,1.69614 -1.86667,5.2747197 c -1.23946,3.50236 -2.02599,5.32472 -2.34078,5.42351 -0.31471,0.0991 -1.59018,-1.38004 -3.79564,-4.40117 l -3.32153,-4.54998 -5.59271,-0.15623 c -3.40847,-0.0952 -5.64644,-0.32743 -5.73029,-0.5945997 z m 11.68988,0.1838197 c 0.1956,0.10215 1.71576,2.07097 3.37816,4.37519 1.66239,2.30421 3.08942,4.16849 3.17116,4.14283 0.0818,-0.0256 0.97086,-2.35182 1.97582,-5.16924 l 1.8272,-5.1225797 5.19986,-1.64084 c 2.85992,-0.90244 5.16477,-1.728 5.1219,-1.83448 -0.0434,-0.10629 -1.9009,-1.55278 -4.12898,-3.21402 -2.22808,-1.66124997 -4.14909,-3.18552 -4.26893,-3.38729 -0.1198,-0.20178 -0.23577,-2.61305 -0.25763,-5.3584 -0.0219,-2.74534 -0.0852,-5.1440903 -0.14067,-5.3305003 -0.0557,-0.18637 -2.07234,1.04203 -4.48187,2.7299303 -2.40955,1.68789 -4.62371,3.01929 -4.92039,2.95865 -0.29669,-0.0606 -2.60444,-0.7857 -5.12837,-1.61125 -2.52392,-0.82557 -4.67449,-1.48455 -4.77906,-1.46442 -0.10454,0.0202 0.51625,2.34649 1.37959,5.16964 0.86329,2.82316 1.46534,5.32915003 1.33782,5.56888003 -0.12747,0.23975997 -1.459,2.10339997 -2.95884,4.14146997 -1.49984,2.03807 -2.82204,3.8876 -2.93824,4.11008 -0.13096,0.25076 1.77771,0.47026 5.02231,0.57754 2.87845,0.0952 5.39357,0.2566297 5.58915,0.3587697 z"
       style="fill:#000000;stroke-width:0.35277778" />
    <path
       id="path826-6-5"
       d="m -191.72655,172.44692 c -0.0841,-0.26711 1.10101,-2.15856 3.03394,-4.8428 l 3.17154,-4.40442 -0.89588,-3.45278 c -0.49274,-1.89903 -1.18034,-4.30929 -1.52803,-5.35615 -0.34789,-1.04678 -0.54178,-2.07639 -0.43134,-2.28788 0.25677,-0.49165 0.60045,-0.41659 5.71581,1.24851 2.33862,0.76124 4.55294,1.41591 4.92071,1.45484 0.36777,0.0389 2.67772,-1.2978 5.13322,-2.97049 2.45551,-1.6727 4.65706,-2.94073 4.89233,-2.81786 0.23527,0.12287 0.44579,2.56085 0.46781,5.41775 0.022,2.85689 0.13025,5.43838 0.24051,5.73665 0.11041,0.29822 2.00303,1.89181 4.20615,3.54122 2.20313,1.6494 4.11152,3.30175 4.24086,3.67189 0.20412,0.58449 -0.47245,0.896 -5.14241,2.36913 l -5.3776,1.69614 -1.86667,5.27472 c -1.23946,3.50236 -2.02599,5.32472 -2.34078,5.42351 -0.31471,0.0991 -1.59018,-1.38004 -3.79564,-4.40117 l -3.32153,-4.54998 -5.59271,-0.15623 c -3.40847,-0.0952 -5.64644,-0.32743 -5.73029,-0.5946 z m 11.68988,0.18382 c 0.1956,0.10215 1.71576,2.07097 3.37816,4.37519 1.66239,2.30421 3.08942,4.16849 3.17116,4.14283 0.0818,-0.0256 0.97086,-2.35182 1.97582,-5.16924 l 1.8272,-5.12258 5.19986,-1.64084 c 2.85992,-0.90244 5.16477,-1.728 5.1219,-1.83448 -0.0434,-0.10629 -1.9009,-1.55278 -4.12898,-3.21402 -2.22808,-1.66125 -4.14909,-3.18552 -4.26893,-3.38729 -0.1198,-0.20178 -0.23577,-2.61305 -0.25763,-5.3584 -0.0219,-2.74534 -0.0852,-5.14409 -0.14067,-5.3305 -0.0557,-0.18637 -2.07234,1.04203 -4.48187,2.72993 -2.40955,1.68789 -4.62371,3.01929 -4.92039,2.95865 -0.29669,-0.0606 -2.60444,-0.7857 -5.12837,-1.61125 -2.52392,-0.82557 -4.67449,-1.48455 -4.77906,-1.46442 -0.10454,0.0202 0.51625,2.34649 1.37959,5.16964 0.86329,2.82316 1.46534,5.32915 1.33782,5.56888 -0.12747,0.23976 -1.459,2.1034 -2.95884,4.14147 -1.49984,2.03807 -2.82204,3.8876 -2.93824,4.11008 -0.13096,0.25076 1.77771,0.47026 5.02231,0.57754 2.87845,0.0952 5.39357,0.25663 5.58915,0.35877 z"
       style="fill:#000000;stroke-width:0.35277778" />
    <path
       id="path826-6-5-3"
       d="m -109.4871,-29.87381 c 0.11518,-0.255251 2.25898,-0.876704 5.48862,-1.591392 l 5.29926,-1.172757 1.63156,-3.172116 c 0.89735,-1.744668 1.989876,-4.000448 2.427817,-5.012877 0.437738,-1.012502 0.978908,-1.909623 1.202151,-1.993812 0.518994,-0.19569 0.725347,0.08921 3.43178,4.73837 1.237319,2.125482 2.452905,4.088682 2.701291,4.362679 0.248407,0.273975 2.861712,0.815525 5.807373,1.20341 2.945674,0.387885 5.432385,0.908453 5.526031,1.156806 0.09365,0.248354 -1.373188,2.207043 -3.259653,4.352646 -1.886473,2.145582 -3.525177,4.143195 -3.641604,4.439113 -0.11628,0.29598 0.233969,2.745237 0.778638,5.442946 0.544683,2.697707 0.867557,5.201297 0.717496,5.563529 -0.237059,0.571925 -0.949194,0.353636 -5.41368,-1.658079 l -5.140849,-2.316711 -4.905661,2.691046 c -3.2573,1.786808 -5.05779,2.622208 -5.35839,2.486224 -0.30074,-0.135701 -0.2669,-2.088528 0.10035,-5.810949 l 0.55309,-5.606154 -4.06749,-3.841654 c -2.47894,-2.341281 -3.99354,-4.005138 -3.87813,-4.260268 z m 8.59694,7.923362 c 0.0779,0.206475 -0.0996,2.687531 -0.39444,5.513507 -0.29479,2.825947 -0.47212,5.166995 -0.39407,5.202308 0.0781,0.03539 2.29063,-1.107543 4.91682,-2.539668 l 4.77488,-2.603848 4.971441,2.239571 c 2.734275,1.231778 5.003321,2.151186 5.042268,2.04321 0.03843,-0.108189 -0.383612,-2.424333 -0.939014,-5.147491 -0.555401,-2.723164 -0.972999,-5.139626 -0.927994,-5.369946 0.04505,-0.230301 1.56461,-2.10609 3.376894,-4.168383 1.812248,-2.062312 3.362763,-3.89368 3.44555,-4.069669 0.08259,-0.176111 -2.239803,-0.603077 -5.161306,-0.948997 -2.921512,-0.345942 -5.459837,-0.827643 -5.640738,-1.070483 -0.180934,-0.242817 -1.419299,-2.32078 -2.752003,-4.617659 -1.332684,-2.296888 -2.497851,-4.22084 -2.589256,-4.275476 -0.09143,-0.05456 -1.177856,2.094083 -2.414312,4.77489 -1.23649,2.68078 -2.45659,4.950981 -2.71138,5.044857 -0.25477,0.09394 -2.48926,0.597114 -4.96547,1.118298 -2.47621,0.521183 -4.69434,1.020057 -4.9292,1.108606 -0.26471,0.09981 1.01275,1.534838 3.36142,3.77598 2.0836,1.988253 3.85208,3.783901 3.92993,3.990356 z"
       style="fill:#000000;stroke-width:0.35277778" />
  </g>
</svg>
