<?xml version="1.0" encoding="UTF-8" standalone="no"?>
<svg
   xmlns:dc="http://purl.org/dc/elements/1.1/"
   xmlns:cc="http://creativecommons.org/ns#"
   xmlns:rdf="http://www.w3.org/1999/02/22-rdf-syntax-ns#"
   xmlns:svg="http://www.w3.org/2000/svg"
   xmlns="http://www.w3.org/2000/svg"
   xmlns:sodipodi="http://sodipodi.sourceforge.net/DTD/sodipodi-0.dtd"
   xmlns:inkscape="http://www.inkscape.org/namespaces/inkscape"
   width="2336.8867"
   height="511.98679"
   viewBox="0 0 240.25823 52.632242"
   preserveAspectRatio="xMidYMid"
   id="svg4179"
   version="1.1"
   inkscape:version="0.91 r13725"
   sodipodi:docname="prometheus-logo.svg">
  <metadata
     id="metadata4187">
    <rdf:RDF>
      <cc:Work
         rdf:about="">
        <dc:format>image/svg+xml</dc:format>
        <dc:type
           rdf:resource="http://purl.org/dc/dcmitype/StillImage" />
        <dc:title></dc:title>
      </cc:Work>
    </rdf:RDF>
  </metadata>
  <defs
     id="defs4185" />
  <sodipodi:namedview
     pagecolor="#ffffff"
     bordercolor="#666666"
     borderopacity="1"
     objecttolerance="10"
     gridtolerance="10"
     guidetolerance="10"
     inkscape:pageopacity="0"
     inkscape:pageshadow="2"
     inkscape:window-width="1698"
     inkscape:window-height="1266"
     id="namedview4183"
     showgrid="false"
     fit-margin-top="0"
     fit-margin-left="0"
     fit-margin-right="0"
     fit-margin-bottom="0"
     inkscape:zoom="1"
     inkscape:cx="1743.6816"
     inkscape:cy="295.99535"
     inkscape:window-x="2724"
     inkscape:window-y="24"
     inkscape:window-maximized="0"
     inkscape:current-layer="svg4179" />
  <path
     d="M 26.32,-0.0028787 C 11.784,-0.0028787 0,11.779121 0,26.317121 c 0,14.535 11.784,26.318 26.32,26.318 14.535,0 26.32,-11.783 26.32,-26.32 0,-14.534 -11.786,-26.31599971112 -26.32,-26.31599971112 z m 0,49.2599997 c -4.136,0 -7.49,-2.763 -7.49,-6.17 l 14.98,0 c 0,3.406 -3.352,6.17 -7.488,6.17 z m 12.37,-8.213 -24.74,0 0,-4.487 24.74,0 0,4.486 z m -0.09,-6.795 -24.58,0 c -0.08,-0.094 -0.165,-0.187 -0.244,-0.283 -2.532,-3.075 -3.13,-4.68 -3.708,-6.316 -0.01,-0.052 3.07,0.63 5.255,1.123 0,0 1.124,0.26 2.767,0.56 -1.577,-1.85 -2.514,-4.2 -2.514,-6.604 0,-5.277 4.046,-9.887 2.586,-13.6139997 1.42,0.116 2.94,2.9999997 3.044,7.5059997 1.51,-2.086 2.142,-5.898 2.142,-8.2349997 0,-2.42 1.595,-5.23 3.19,-5.327 -1.422,2.343 0.368,4.352 1.96,9.3349997 0.596,1.872 0.52,5.022 0.98,7.02 0.154,-4.15 0.867,-10.2029997 3.5,-12.2929997 -1.162,2.632 0.17,5.9259997 1.083,7.5099997 1.473,2.553 2.364,4.49 2.364,8.15 0,2.454 -0.906,4.764 -2.434,6.57 1.737,-0.326 2.937,-0.62 2.937,-0.62 l 5.644,-1.1 c 0.003,0 -0.82,3.372 -3.97,6.62 z"
     id="path4181"
     inkscape:connector-curvature="0"
     style="fill:#da4e31;stroke-width:0.206" />
  <text
     xml:space="preserve"
     style="font-style:normal;font-weight:normal;font-size:4.11244965px;line-height:125%;font-family:Sans;letter-spacing:0px;word-spacing:0px;fill:#da4e31;fill-opacity:1;stroke:none;stroke-width:1px;stroke-linecap:butt;stroke-linejoin:miter;stroke-opacity:1"
     x="57.562443"
     y="34.243095"
     id="text4189"
     sodipodi:linespacing="125%"><tspan
       sodipodi:role="line"
       id="tspan4191"
       x="57.562443"
       y="34.243095"
       style="font-size:30.84337425px">Prometheus</tspan></text>
</svg>
